<svg xmlns="http://www.w3.org/2000/svg" xmlns:xlink="http://www.w3.org/1999/xlink" viewBox="0 0 398.86 621.48"><defs><style>.cls-1{isolation:isolate;}.cls-2{mix-blend-mode:screen;}.cls-10,.cls-11,.cls-12,.cls-13,.cls-14,.cls-15,.cls-16,.cls-17,.cls-18,.cls-19,.cls-20,.cls-21,.cls-22,.cls-23,.cls-24,.cls-25,.cls-26,.cls-27,.cls-28,.cls-29,.cls-3,.cls-30,.cls-31,.cls-32,.cls-33,.cls-34,.cls-35,.cls-36,.cls-37,.cls-38,.cls-39,.cls-4,.cls-40,.cls-41,.cls-42,.cls-43,.cls-44,.cls-45,.cls-46,.cls-47,.cls-48,.cls-49,.cls-5,.cls-50,.cls-51,.cls-52,.cls-53,.cls-54,.cls-55,.cls-56,.cls-57,.cls-58,.cls-59,.cls-6,.cls-60,.cls-61,.cls-62,.cls-63,.cls-64,.cls-65,.cls-66,.cls-7,.cls-8,.cls-9{fill:none;}.cls-3,.cls-4,.cls-5{stroke-linecap:round;stroke-linejoin:round;}.cls-3{stroke:url(#Degradado_sin_nombre_3155);}.cls-4{stroke-dasharray:1 2;stroke:url(#Degradado_sin_nombre_3155-2);}.cls-5{stroke:url(#Degradado_sin_nombre_3155-3);}.cls-10,.cls-11,.cls-12,.cls-13,.cls-14,.cls-15,.cls-16,.cls-17,.cls-18,.cls-19,.cls-20,.cls-21,.cls-22,.cls-23,.cls-24,.cls-25,.cls-26,.cls-27,.cls-28,.cls-29,.cls-30,.cls-31,.cls-32,.cls-33,.cls-34,.cls-35,.cls-36,.cls-37,.cls-38,.cls-39,.cls-40,.cls-41,.cls-42,.cls-43,.cls-44,.cls-45,.cls-46,.cls-47,.cls-48,.cls-49,.cls-50,.cls-51,.cls-52,.cls-53,.cls-54,.cls-55,.cls-56,.cls-57,.cls-58,.cls-59,.cls-6,.cls-60,.cls-61,.cls-62,.cls-63,.cls-64,.cls-65,.cls-66,.cls-7,.cls-8,.cls-9{stroke-miterlimit:10;}.cls-6,.cls-7,.cls-8{stroke-width:1.06px;}.cls-6{stroke:url(#Degradado_sin_nombre_3155-4);}.cls-7{stroke-dasharray:1.06 1.93;stroke:url(#Degradado_sin_nombre_3155-5);}.cls-8{stroke:url(#Degradado_sin_nombre_3155-6);}.cls-10,.cls-11,.cls-9{stroke-width:1.13px;}.cls-9{stroke:url(#Degradado_sin_nombre_3155-7);}.cls-10{stroke-dasharray:1.13 1.87;stroke:url(#Degradado_sin_nombre_3155-8);}.cls-11{stroke:url(#Degradado_sin_nombre_3155-9);}.cls-12,.cls-13,.cls-14{stroke-width:1.19px;}.cls-12{stroke:url(#Degradado_sin_nombre_3155-10);}.cls-13{stroke-dasharray:1.19 1.81;stroke:url(#Degradado_sin_nombre_3155-11);}.cls-14{stroke:url(#Degradado_sin_nombre_3155-12);}.cls-15,.cls-16,.cls-17{stroke-width:1.26px;}.cls-15{stroke:url(#Degradado_sin_nombre_3155-13);}.cls-16{stroke-dasharray:1.26 1.74;stroke:url(#Degradado_sin_nombre_3155-14);}.cls-17{stroke:url(#Degradado_sin_nombre_3155-15);}.cls-18,.cls-19,.cls-20{stroke-width:1.32px;}.cls-18{stroke:url(#Degradado_sin_nombre_3155-16);}.cls-19{stroke-dasharray:1.32 1.68;stroke:url(#Degradado_sin_nombre_3155-17);}.cls-20{stroke:url(#Degradado_sin_nombre_3155-18);}.cls-21,.cls-22,.cls-23{stroke-width:1.39px;}.cls-21{stroke:url(#Degradado_sin_nombre_3155-19);}.cls-22{stroke-dasharray:1.38 1.61;stroke:url(#Degradado_sin_nombre_3155-20);}.cls-23{stroke:url(#Degradado_sin_nombre_3155-21);}.cls-24,.cls-25,.cls-26{stroke-width:1.45px;}.cls-24{stroke:url(#Degradado_sin_nombre_3155-22);}.cls-25{stroke-dasharray:1.45 1.55;stroke:url(#Degradado_sin_nombre_3155-23);}.cls-26{stroke:url(#Degradado_sin_nombre_3155-24);}.cls-27,.cls-28,.cls-29{stroke-width:1.52px;}.cls-27{stroke:url(#Degradado_sin_nombre_3155-25);}.cls-28{stroke-dasharray:1.52 1.49;stroke:url(#Degradado_sin_nombre_3155-26);}.cls-29{stroke:url(#Degradado_sin_nombre_3155-27);}.cls-30,.cls-31,.cls-32{stroke-width:1.58px;}.cls-30{stroke:url(#Degradado_sin_nombre_3155-28);}.cls-31{stroke-dasharray:1.58 1.42;stroke:url(#Degradado_sin_nombre_3155-29);}.cls-32{stroke:url(#Degradado_sin_nombre_3155-30);}.cls-33,.cls-34,.cls-35{stroke-width:1.65px;}.cls-33{stroke:url(#Degradado_sin_nombre_3155-31);}.cls-34{stroke-dasharray:1.65 1.36;stroke:url(#Degradado_sin_nombre_3155-32);}.cls-35{stroke:url(#Degradado_sin_nombre_3155-33);}.cls-36,.cls-37,.cls-38{stroke-width:1.71px;}.cls-36{stroke:url(#Degradado_sin_nombre_3155-34);}.cls-37{stroke-dasharray:1.71 1.29;stroke:url(#Degradado_sin_nombre_3155-35);}.cls-38{stroke:url(#Degradado_sin_nombre_3155-36);}.cls-39,.cls-40,.cls-41{stroke-width:1.77px;}.cls-39{stroke:url(#Degradado_sin_nombre_3155-37);}.cls-40{stroke-dasharray:1.77 1.23;stroke:url(#Degradado_sin_nombre_3155-38);}.cls-41{stroke:url(#Degradado_sin_nombre_3155-39);}.cls-42,.cls-43,.cls-44{stroke-width:1.84px;}.cls-42{stroke:url(#Degradado_sin_nombre_3155-40);}.cls-43{stroke-dasharray:1.84 1.16;stroke:url(#Degradado_sin_nombre_3155-41);}.cls-44{stroke:url(#Degradado_sin_nombre_3155-42);}.cls-45,.cls-46,.cls-47{stroke-width:1.9px;}.cls-45{stroke:url(#Degradado_sin_nombre_3155-43);}.cls-46{stroke-dasharray:1.9 1.1;stroke:url(#Degradado_sin_nombre_3155-44);}.cls-47{stroke:url(#Degradado_sin_nombre_3155-45);}.cls-48,.cls-49,.cls-50{stroke-width:1.97px;}.cls-48{stroke:url(#Degradado_sin_nombre_3155-46);}.cls-49{stroke-dasharray:1.97 1.03;stroke:url(#Degradado_sin_nombre_3155-47);}.cls-50{stroke:url(#Degradado_sin_nombre_3155-48);}.cls-51{stroke-width:2.03px;stroke-dasharray:2.03 0.97;stroke:url(#Degradado_sin_nombre_3155-49);}.cls-52{stroke-width:2.1px;stroke-dasharray:2.1 0.9;stroke:url(#Degradado_sin_nombre_3155-50);}.cls-53{stroke-width:2.16px;stroke-dasharray:2.16 0.84;stroke:url(#Degradado_sin_nombre_3155-51);}.cls-54{stroke-width:2.23px;stroke-dasharray:2.23 0.77;stroke:url(#Degradado_sin_nombre_3155-52);}.cls-55{stroke-width:2.29px;stroke-dasharray:2.29 0.71;stroke:url(#Degradado_sin_nombre_3155-53);}.cls-56{stroke-width:2.35px;stroke-dasharray:2.35 0.65;stroke:url(#Degradado_sin_nombre_3155-54);}.cls-57{stroke-width:2.42px;stroke-dasharray:2.42 0.58;stroke:url(#Degradado_sin_nombre_3155-55);}.cls-58{stroke-width:2.48px;stroke-dasharray:2.48 0.52;stroke:url(#Degradado_sin_nombre_3155-56);}.cls-59{stroke-width:2.55px;stroke-dasharray:2.55 0.45;stroke:url(#Degradado_sin_nombre_3155-57);}.cls-60{stroke-width:2.61px;stroke-dasharray:2.61 0.39;stroke:url(#Degradado_sin_nombre_3155-58);}.cls-61{stroke-width:2.68px;stroke-dasharray:2.68 0.32;stroke:url(#Degradado_sin_nombre_3155-59);}.cls-62{stroke-width:2.74px;stroke-dasharray:2.74 0.26;stroke:url(#Degradado_sin_nombre_3155-60);}.cls-63{stroke-width:2.81px;stroke-dasharray:2.81 0.19;stroke:url(#Degradado_sin_nombre_3155-61);}.cls-64{stroke-width:2.87px;stroke-dasharray:2.87 0.13;stroke:url(#Degradado_sin_nombre_3155-62);}.cls-65{stroke-width:2.94px;stroke-dasharray:2.94 0.06;stroke:url(#Degradado_sin_nombre_3155-63);}.cls-66{stroke-width:3px;stroke:url(#Degradado_sin_nombre_3155-64);}</style><linearGradient id="Degradado_sin_nombre_3155" y1="25.75" x2="260.41" y2="25.75" gradientUnits="userSpaceOnUse"><stop offset="0.17" stop-color="#0282fc"/><stop offset="1" stop-color="#0324c9" stop-opacity="0"/></linearGradient><linearGradient id="Degradado_sin_nombre_3155-2" x1="0" y1="313.25" x2="260.41" y2="313.25" xlink:href="#Degradado_sin_nombre_3155"/><linearGradient id="Degradado_sin_nombre_3155-3" x1="0" y1="598.65" x2="260.41" y2="598.65" xlink:href="#Degradado_sin_nombre_3155"/><linearGradient id="Degradado_sin_nombre_3155-4" x1="7.15" y1="24.98" x2="264.77" y2="24.98" xlink:href="#Degradado_sin_nombre_3155"/><linearGradient id="Degradado_sin_nombre_3155-5" x1="7.15" y1="313.38" x2="264.77" y2="313.38" xlink:href="#Degradado_sin_nombre_3155"/><linearGradient id="Degradado_sin_nombre_3155-6" x1="7.15" y1="599.33" x2="264.77" y2="599.33" xlink:href="#Degradado_sin_nombre_3155"/><linearGradient id="Degradado_sin_nombre_3155-7" x1="14.29" y1="24.21" x2="269.14" y2="24.21" xlink:href="#Degradado_sin_nombre_3155"/><linearGradient id="Degradado_sin_nombre_3155-8" x1="14.29" y1="313.32" x2="269.14" y2="313.32" xlink:href="#Degradado_sin_nombre_3155"/><linearGradient id="Degradado_sin_nombre_3155-9" x1="14.29" y1="600.02" x2="269.14" y2="600.02" xlink:href="#Degradado_sin_nombre_3155"/><linearGradient id="Degradado_sin_nombre_3155-10" x1="21.4" y1="23.45" x2="273.52" y2="23.45" xlink:href="#Degradado_sin_nombre_3155"/><linearGradient id="Degradado_sin_nombre_3155-11" x1="21.4" y1="313.26" x2="273.52" y2="313.26" xlink:href="#Degradado_sin_nombre_3155"/><linearGradient id="Degradado_sin_nombre_3155-12" x1="21.4" y1="600.71" x2="273.52" y2="600.71" xlink:href="#Degradado_sin_nombre_3155"/><linearGradient id="Degradado_sin_nombre_3155-13" x1="28.49" y1="22.68" x2="277.91" y2="22.68" xlink:href="#Degradado_sin_nombre_3155"/><linearGradient id="Degradado_sin_nombre_3155-14" x1="28.49" y1="313.2" x2="277.91" y2="313.2" xlink:href="#Degradado_sin_nombre_3155"/><linearGradient id="Degradado_sin_nombre_3155-15" x1="28.49" y1="601.39" x2="277.91" y2="601.39" xlink:href="#Degradado_sin_nombre_3155"/><linearGradient id="Degradado_sin_nombre_3155-16" x1="35.57" y1="21.91" x2="282.31" y2="21.91" xlink:href="#Degradado_sin_nombre_3155"/><linearGradient id="Degradado_sin_nombre_3155-17" x1="35.56" y1="313.14" x2="282.31" y2="313.14" xlink:href="#Degradado_sin_nombre_3155"/><linearGradient id="Degradado_sin_nombre_3155-18" x1="35.57" y1="602.08" x2="282.31" y2="602.08" xlink:href="#Degradado_sin_nombre_3155"/><linearGradient id="Degradado_sin_nombre_3155-19" x1="42.62" y1="21.14" x2="286.71" y2="21.14" xlink:href="#Degradado_sin_nombre_3155"/><linearGradient id="Degradado_sin_nombre_3155-20" x1="42.62" y1="313.07" x2="286.71" y2="313.07" xlink:href="#Degradado_sin_nombre_3155"/><linearGradient id="Degradado_sin_nombre_3155-21" x1="42.62" y1="602.77" x2="286.71" y2="602.77" xlink:href="#Degradado_sin_nombre_3155"/><linearGradient id="Degradado_sin_nombre_3155-22" x1="49.66" y1="20.38" x2="291.12" y2="20.38" xlink:href="#Degradado_sin_nombre_3155"/><linearGradient id="Degradado_sin_nombre_3155-23" x1="49.66" y1="313.01" x2="291.12" y2="313.01" xlink:href="#Degradado_sin_nombre_3155"/><linearGradient id="Degradado_sin_nombre_3155-24" x1="49.66" y1="603.46" x2="291.12" y2="603.46" xlink:href="#Degradado_sin_nombre_3155"/><linearGradient id="Degradado_sin_nombre_3155-25" x1="56.67" y1="19.61" x2="295.55" y2="19.61" xlink:href="#Degradado_sin_nombre_3155"/><linearGradient id="Degradado_sin_nombre_3155-26" x1="56.68" y1="312.94" x2="295.55" y2="312.94" xlink:href="#Degradado_sin_nombre_3155"/><linearGradient id="Degradado_sin_nombre_3155-27" x1="56.67" y1="604.14" x2="295.55" y2="604.14" xlink:href="#Degradado_sin_nombre_3155"/><linearGradient id="Degradado_sin_nombre_3155-28" x1="63.68" y1="18.84" x2="299.98" y2="18.84" xlink:href="#Degradado_sin_nombre_3155"/><linearGradient id="Degradado_sin_nombre_3155-29" x1="63.68" y1="312.87" x2="299.98" y2="312.87" xlink:href="#Degradado_sin_nombre_3155"/><linearGradient id="Degradado_sin_nombre_3155-30" x1="63.68" y1="604.83" x2="299.98" y2="604.83" xlink:href="#Degradado_sin_nombre_3155"/><linearGradient id="Degradado_sin_nombre_3155-31" x1="70.66" y1="18.07" x2="304.41" y2="18.07" xlink:href="#Degradado_sin_nombre_3155"/><linearGradient id="Degradado_sin_nombre_3155-32" x1="70.66" y1="312.81" x2="304.41" y2="312.81" xlink:href="#Degradado_sin_nombre_3155"/><linearGradient id="Degradado_sin_nombre_3155-33" x1="70.66" y1="605.52" x2="304.41" y2="605.52" xlink:href="#Degradado_sin_nombre_3155"/><linearGradient id="Degradado_sin_nombre_3155-34" x1="77.63" y1="17.29" x2="308.86" y2="17.29" xlink:href="#Degradado_sin_nombre_3155"/><linearGradient id="Degradado_sin_nombre_3155-35" x1="77.63" y1="312.74" x2="308.86" y2="312.74" xlink:href="#Degradado_sin_nombre_3155"/><linearGradient id="Degradado_sin_nombre_3155-36" x1="77.63" y1="606.2" x2="308.86" y2="606.2" xlink:href="#Degradado_sin_nombre_3155"/><linearGradient id="Degradado_sin_nombre_3155-37" x1="84.59" y1="16.52" x2="313.31" y2="16.52" xlink:href="#Degradado_sin_nombre_3155"/><linearGradient id="Degradado_sin_nombre_3155-38" x1="84.59" y1="312.66" x2="313.31" y2="312.66" xlink:href="#Degradado_sin_nombre_3155"/><linearGradient id="Degradado_sin_nombre_3155-39" x1="84.59" y1="606.89" x2="313.31" y2="606.89" xlink:href="#Degradado_sin_nombre_3155"/><linearGradient id="Degradado_sin_nombre_3155-40" x1="91.53" y1="15.75" x2="317.77" y2="15.75" xlink:href="#Degradado_sin_nombre_3155"/><linearGradient id="Degradado_sin_nombre_3155-41" x1="91.53" y1="312.59" x2="317.77" y2="312.59" xlink:href="#Degradado_sin_nombre_3155"/><linearGradient id="Degradado_sin_nombre_3155-42" x1="91.53" y1="607.58" x2="317.77" y2="607.58" xlink:href="#Degradado_sin_nombre_3155"/><linearGradient id="Degradado_sin_nombre_3155-43" x1="98.46" y1="14.98" x2="322.19" y2="14.98" xlink:href="#Degradado_sin_nombre_3155"/><linearGradient id="Degradado_sin_nombre_3155-44" x1="98.46" y1="312.52" x2="322.19" y2="312.52" xlink:href="#Degradado_sin_nombre_3155"/><linearGradient id="Degradado_sin_nombre_3155-45" x1="98.46" y1="608.26" x2="322.19" y2="608.26" xlink:href="#Degradado_sin_nombre_3155"/><linearGradient id="Degradado_sin_nombre_3155-46" x1="105.37" y1="14.2" x2="326.66" y2="14.2" xlink:href="#Degradado_sin_nombre_3155"/><linearGradient id="Degradado_sin_nombre_3155-47" x1="105.37" y1="312.44" x2="326.66" y2="312.44" xlink:href="#Degradado_sin_nombre_3155"/><linearGradient id="Degradado_sin_nombre_3155-48" x1="105.37" y1="608.95" x2="326.66" y2="608.95" xlink:href="#Degradado_sin_nombre_3155"/><linearGradient id="Degradado_sin_nombre_3155-49" x1="112.27" y1="311.56" x2="331.18" y2="311.56" xlink:href="#Degradado_sin_nombre_3155"/><linearGradient id="Degradado_sin_nombre_3155-50" x1="119.16" y1="311.51" x2="335.66" y2="311.51" xlink:href="#Degradado_sin_nombre_3155"/><linearGradient id="Degradado_sin_nombre_3155-51" x1="126.04" y1="311.46" x2="340.15" y2="311.46" xlink:href="#Degradado_sin_nombre_3155"/><linearGradient id="Degradado_sin_nombre_3155-52" x1="132.9" y1="311.41" x2="344.64" y2="311.41" xlink:href="#Degradado_sin_nombre_3155"/><linearGradient id="Degradado_sin_nombre_3155-53" x1="139.76" y1="311.35" x2="349.14" y2="311.35" xlink:href="#Degradado_sin_nombre_3155"/><linearGradient id="Degradado_sin_nombre_3155-54" x1="146.6" y1="311.3" x2="353.64" y2="311.3" xlink:href="#Degradado_sin_nombre_3155"/><linearGradient id="Degradado_sin_nombre_3155-55" x1="153.43" y1="311.25" x2="358.15" y2="311.25" xlink:href="#Degradado_sin_nombre_3155"/><linearGradient id="Degradado_sin_nombre_3155-56" x1="160.25" y1="311.19" x2="362.66" y2="311.19" xlink:href="#Degradado_sin_nombre_3155"/><linearGradient id="Degradado_sin_nombre_3155-57" x1="167.06" y1="311.13" x2="367.17" y2="311.13" xlink:href="#Degradado_sin_nombre_3155"/><linearGradient id="Degradado_sin_nombre_3155-58" x1="173.86" y1="311.08" x2="371.69" y2="311.08" xlink:href="#Degradado_sin_nombre_3155"/><linearGradient id="Degradado_sin_nombre_3155-59" x1="180.65" y1="311.02" x2="376.21" y2="311.02" xlink:href="#Degradado_sin_nombre_3155"/><linearGradient id="Degradado_sin_nombre_3155-60" x1="187.44" y1="310.97" x2="380.73" y2="310.97" xlink:href="#Degradado_sin_nombre_3155"/><linearGradient id="Degradado_sin_nombre_3155-61" x1="194.21" y1="310.91" x2="385.26" y2="310.91" xlink:href="#Degradado_sin_nombre_3155"/><linearGradient id="Degradado_sin_nombre_3155-62" x1="200.98" y1="310.85" x2="389.79" y2="310.85" xlink:href="#Degradado_sin_nombre_3155"/><linearGradient id="Degradado_sin_nombre_3155-63" x1="207.73" y1="310.8" x2="394.33" y2="310.8" xlink:href="#Degradado_sin_nombre_3155"/><linearGradient id="Degradado_sin_nombre_3155-64" x1="214.48" y1="310.74" x2="398.86" y2="310.74" xlink:href="#Degradado_sin_nombre_3155"/></defs><g class="cls-1"><g id="Слой_2" data-name="Слой 2"><g id="BACKGROUND_2" data-name="BACKGROUND 2"><g id="dotted-waves" class="cls-2"><path class="cls-3" d="M8,25.51s-.05.17-.13.48"/><path class="cls-4" d="M7.37,27.93C3.1,45.69-20.06,157.8,52.71,238.37c79.23,87.74,188.17,84.86,201.7,151.62,12.72,62.8,10.71,201.85-87.61,208.58"/><path class="cls-5" d="M165.79,598.63l-.5,0"/><path class="cls-6" d="M15.82,24.73s-.05.17-.14.51"/><path class="cls-7" d="M15.18,27.1C10.71,44.53-13.65,154.42,59.11,235,138.35,322.71,245.44,321,259,388.54c12.62,62.83,9.48,204-88.86,210.72"/><path class="cls-8" d="M169.14,599.32l-.53,0"/><path class="cls-9" d="M23.67,24s-.06.18-.17.54"/><path class="cls-10" d="M23,26.29C18.32,43.4-7.23,151,65.51,231.59c79.24,87.73,184.5,87.14,198,155.5,12.51,62.85,8.24,206.08-90.1,212.85"/><path class="cls-11" d="M172.49,600l-.56,0"/><path class="cls-12" d="M31.51,23.17l-.18.56"/><path class="cls-13" d="M30.81,25.46C25.93,42.23-.81,147.66,71.92,228.19c79.24,87.74,182.66,88.29,196.18,157.45,12.41,62.88,7,208.2-91.35,215"/><path class="cls-14" d="M175.84,600.69l-.59,0"/><path class="cls-15" d="M39.35,22.39l-.2.59"/><path class="cls-16" d="M38.62,24.64c-5.08,16.42-33,119.64,39.7,200.16,79.24,87.74,180.82,89.43,194.35,159.39,12.29,62.91,5.77,210.32-92.6,217.13"/><path class="cls-17" d="M179.19,601.38l-.63,0"/><path class="cls-18" d="M47.19,21.61s-.07.21-.22.62"/><path class="cls-19" d="M46.44,23.81C41.15,39.89,12,140.9,84.73,221.41,164,309.14,263.71,312,277.24,382.74c12.18,62.94,4.53,212.43-93.85,219.27"/><path class="cls-20" d="M182.54,602.06l-.66,0"/><path class="cls-21" d="M55,20.83s-.09.22-.25.64"/><path class="cls-22" d="M54.25,23C48.76,38.72,18.42,137.51,91.13,218c79.24,87.73,177.15,91.71,190.67,163.27,12.08,63,3.3,214.55-95.09,221.4"/><path class="cls-23" d="M185.89,602.75l-.69,0"/><path class="cls-24" d="M62.88,20.05l-.27.67"/><path class="cls-25" d="M62.06,22.16c-5.7,15.4-37.22,112,35.47,192.46,79.24,87.74,175.31,92.86,188.84,165.22,12,63,2.06,216.66-96.34,223.54"/><path class="cls-26" d="M189.24,603.43l-.72.05"/><path class="cls-27" d="M70.72,19.27l-.29.69"/><path class="cls-28" d="M69.88,21.33C64,36.38,31.25,130.75,103.94,211.23c79.24,87.74,173.47,94,187,167.16,11.87,63,.83,218.78-97.58,225.68"/><path class="cls-29" d="M192.59,604.12l-.75,0"/><path class="cls-30" d="M78.57,18.49s-.12.24-.32.71"/><path class="cls-31" d="M77.69,20.51c-6.11,14.69-40,106.85,32.65,187.33C189.58,295.57,282,303,295.5,376.94c11.76,63.06-.41,220.9-98.84,227.82"/><path class="cls-32" d="M195.94,604.81l-.79,0"/><path class="cls-33" d="M86.41,17.71l-.35.74"/><path class="cls-34" d="M85.5,19.68C79.19,34,44.07,124,116.75,204.45c79.23,87.73,169.79,96.27,183.31,171,11.66,63.09-1.64,223-100.08,230"/><path class="cls-35" d="M199.29,605.49l-.82,0"/><path class="cls-36" d="M94.25,16.92l-.38.77"/><path class="cls-37" d="M93.32,18.85c-6.51,14-42.85,101.73,29.83,182.2,79.24,87.74,168,97.42,181.48,173,11.55,63.12-2.88,225.13-101.33,232.09"/><path class="cls-38" d="M202.64,606.18l-.85.05"/><path class="cls-39" d="M102.1,16.14l-.42.78"/><path class="cls-40" d="M101.13,18c-6.71,13.62-44.25,99.18,28.43,179.65,79.23,87.74,166.11,98.56,179.64,174.93,11.43,63.15-4.12,227.25-102.58,234.23"/><path class="cls-41" d="M206,606.86l-.88,0"/><path class="cls-42" d="M109.94,15.36s-.16.27-.45.8"/><path class="cls-43" d="M109,17.18C102,30.43,63.28,113.79,136,194.27,215.2,282,300.24,294,313.76,371.14c11.33,63.18-5.35,229.37-103.83,236.37"/><path class="cls-44" d="M209.34,607.55l-.91.05"/><path class="cls-45" d="M117.78,14.58s-.17.28-.48.82"/><path class="cls-46" d="M116.77,16.35c-7.12,12.88-47.09,94.05,25.59,174.53,79.24,87.73,162.29,100.87,176,178.81,11.1,63.23-6.6,231.48-105.08,238.51"/><path class="cls-47" d="M212.69,608.23l-.95.06"/><path class="cls-48" d="M125.62,13.8s-.18.28-.51.83"/><path class="cls-49" d="M124.58,15.52c-7.31,12.5-48.5,91.48,24.19,172,79.23,87.74,160.44,102,174.12,180.76,11,63.26-7.83,233.6-106.32,240.64"/><path class="cls-50" d="M216,608.92l-1,.06"/><path class="cls-51" d="M133.47,13s-57.54,83.33,21.7,171.07,158.77,103.13,172.29,182.7c11.07,63.59-9.27,237.47-109.08,242.88"/><path class="cls-52" d="M141.31,12.24S82.34,93,161.58,180.7,318.51,285,332,365.34C343,429,321.51,605,221.7,610.35"/><path class="cls-53" d="M149.15,11.46S88.74,89.57,168,177.31,323.07,282.72,336.59,363.89C347.44,427.54,324.82,605.63,225,611"/><path class="cls-54" d="M157,10.68s-61.85,75.5,17.38,163.23S327.64,280.47,341.16,362.44c10.74,63.68-13,243.88-112.83,249.29"/><path class="cls-55" d="M164.84,9.9s-63.29,72.88,15.95,160.62S332.2,278.22,345.72,361c10.64,63.71-14.26,246-114.07,251.43"/><path class="cls-56" d="M172.68,9.12s-64.73,70.27,14.51,158S336.77,276,350.29,359.54C360.82,423.28,334.78,607.7,235,613.1"/><path class="cls-57" d="M180.53,8.34S114.36,76,193.6,163.74s147.74,110,161.26,194.35c10.41,63.76-16.76,250.3-116.57,255.7"/><path class="cls-58" d="M188.37,7.56S120.76,72.61,200,160.34s145.9,111.13,159.42,196.3c10.31,63.79-18,252.43-117.81,257.84"/><path class="cls-59" d="M196.21,6.78S127.17,69.21,206.4,157,350.47,269.22,364,355.19c10.2,63.82-19.26,254.57-119.07,260"/><path class="cls-60" d="M204.05,6s-70.48,59.83,8.76,147.57S355,267,368.55,353.74c10.1,63.85-20.5,256.71-120.31,262.11"/><path class="cls-61" d="M211.9,5.21s-71.93,57.22,7.31,145S359.6,264.71,373.12,352.29c10,63.88-21.75,258.85-121.56,264.25"/><path class="cls-62" d="M219.74,4.43S146.38,59,225.62,146.77,364.17,262.46,377.69,350.84c9.88,63.91-23,261-122.81,266.39"/><path class="cls-63" d="M227.58,3.65s-74.8,52,4.44,139.73,136.72,116.83,150.23,206C392,413.33,358,612.51,258.2,617.92"/><path class="cls-64" d="M235.43,2.87s-76.24,49.38,3,137.12,134.88,118,148.4,208c9.66,64-25.5,265.26-125.31,270.67"/><path class="cls-65" d="M243.27,2.09s-77.68,46.77,1.56,134.5,133,119.12,146.55,209.9c9.56,64-26.74,267.4-126.55,272.8"/><path class="cls-66" d="M251.11,1.31S172,45.47,251.23,133.2,382.43,253.46,396,345c9.45,64-28,269.54-127.8,274.94"/></g></g></g></g></svg>