<svg xmlns="http://www.w3.org/2000/svg" xmlns:xlink="http://www.w3.org/1999/xlink" viewBox="0 0 795.92 311.08"><defs><style>.cls-1{isolation:isolate;}.cls-2{mix-blend-mode:screen;}.cls-10,.cls-11,.cls-12,.cls-13,.cls-14,.cls-15,.cls-16,.cls-17,.cls-18,.cls-19,.cls-20,.cls-21,.cls-22,.cls-23,.cls-24,.cls-25,.cls-26,.cls-27,.cls-28,.cls-29,.cls-3,.cls-30,.cls-31,.cls-32,.cls-33,.cls-34,.cls-35,.cls-36,.cls-37,.cls-38,.cls-39,.cls-4,.cls-40,.cls-41,.cls-42,.cls-43,.cls-44,.cls-5,.cls-6,.cls-7,.cls-8,.cls-9{fill:none;stroke-linecap:round;stroke-linejoin:round;}.cls-3{stroke-width:3px;stroke-dasharray:0 5;stroke:url(#Degradado_sin_nombre_3218);}.cls-4{stroke-width:2.93px;stroke-dasharray:0.12 4.88;stroke:url(#Degradado_sin_nombre_4574);}.cls-5{stroke-width:2.87px;stroke-dasharray:0.24 4.76;stroke:url(#Degradado_sin_nombre_4573);}.cls-6{stroke-width:2.8px;stroke-dasharray:0.37 4.63;stroke:url(#Degradado_sin_nombre_4572);}.cls-7{stroke-width:2.73px;stroke-dasharray:0.49 4.51;stroke:url(#Degradado_sin_nombre_4571);}.cls-8{stroke-width:2.66px;stroke-dasharray:0.61 4.39;stroke:url(#Degradado_sin_nombre_4570);}.cls-9{stroke-width:2.6px;stroke-dasharray:0.73 4.27;stroke:url(#Degradado_sin_nombre_4569);}.cls-10{stroke-width:2.53px;stroke-dasharray:0.85 4.15;stroke:url(#Degradado_sin_nombre_4568);}.cls-11{stroke-width:2.46px;stroke-dasharray:0.98 4.02;stroke:url(#Degradado_sin_nombre_4567);}.cls-12{stroke-width:2.4px;stroke-dasharray:1.1 3.9;stroke:url(#Degradado_sin_nombre_4566);}.cls-13{stroke-width:2.33px;stroke-dasharray:1.22 3.78;stroke:url(#Degradado_sin_nombre_4565);}.cls-14{stroke-width:2.26px;stroke-dasharray:1.34 3.66;stroke:url(#Degradado_sin_nombre_4564);}.cls-15{stroke-width:2.2px;stroke-dasharray:1.46 3.54;stroke:url(#Degradado_sin_nombre_4563);}.cls-16{stroke-width:2.13px;stroke-dasharray:1.59 3.41;stroke:url(#Degradado_sin_nombre_4562);}.cls-17{stroke-width:2.06px;stroke-dasharray:1.71 3.29;stroke:url(#Degradado_sin_nombre_4561);}.cls-18{stroke-width:1.99px;stroke-dasharray:1.83 3.17;stroke:url(#Degradado_sin_nombre_4560);}.cls-19{stroke-width:1.93px;stroke-dasharray:1.95 3.05;stroke:url(#Degradado_sin_nombre_4559);}.cls-20{stroke-width:1.86px;stroke-dasharray:2.07 2.93;stroke:url(#Degradado_sin_nombre_4558);}.cls-21{stroke-width:1.79px;stroke-dasharray:2.2 2.8;stroke:url(#Degradado_sin_nombre_4557);}.cls-22{stroke-width:1.73px;stroke-dasharray:2.32 2.68;stroke:url(#Degradado_sin_nombre_4556);}.cls-23{stroke-width:1.66px;stroke-dasharray:2.44 2.56;stroke:url(#Degradado_sin_nombre_4555);}.cls-24{stroke-width:1.59px;stroke-dasharray:2.56 2.44;stroke:url(#Degradado_sin_nombre_4554);}.cls-25{stroke-width:1.52px;stroke-dasharray:2.68 2.32;stroke:url(#Degradado_sin_nombre_4553);}.cls-26{stroke-width:1.46px;stroke-dasharray:2.8 2.2;stroke:url(#Degradado_sin_nombre_4552);}.cls-27{stroke-width:1.39px;stroke-dasharray:2.93 2.07;stroke:url(#Degradado_sin_nombre_4551);}.cls-28{stroke-width:1.32px;stroke-dasharray:3.05 1.95;stroke:url(#Degradado_sin_nombre_4550);}.cls-29{stroke-width:1.26px;stroke-dasharray:3.17 1.83;stroke:url(#Degradado_sin_nombre_4549);}.cls-30{stroke-width:1.19px;stroke-dasharray:3.29 1.71;stroke:url(#Degradado_sin_nombre_4548);}.cls-31{stroke-width:1.12px;stroke-dasharray:3.41 1.59;stroke:url(#Degradado_sin_nombre_4547);}.cls-32{stroke-width:1.05px;stroke-dasharray:3.54 1.46;stroke:url(#Degradado_sin_nombre_4546);}.cls-33{stroke-width:0.99px;stroke-dasharray:3.66 1.34;stroke:url(#Degradado_sin_nombre_4545);}.cls-34{stroke-width:0.92px;stroke-dasharray:3.78 1.22;stroke:url(#Degradado_sin_nombre_4544);}.cls-35{stroke-width:0.85px;stroke-dasharray:3.9 1.1;stroke:url(#Degradado_sin_nombre_4543);}.cls-36{stroke-width:0.79px;stroke-dasharray:4.02 0.98;stroke:url(#Degradado_sin_nombre_4542);}.cls-37{stroke-width:0.72px;stroke-dasharray:4.15 0.85;stroke:url(#Degradado_sin_nombre_4541);}.cls-38{stroke-width:0.65px;stroke-dasharray:4.27 0.73;stroke:url(#Degradado_sin_nombre_4540);}.cls-39{stroke-width:0.59px;stroke-dasharray:4.39 0.61;stroke:url(#Degradado_sin_nombre_4539);}.cls-40{stroke-width:0.52px;stroke-dasharray:4.51 0.49;stroke:url(#Degradado_sin_nombre_4538);}.cls-41{stroke-width:0.45px;stroke-dasharray:4.63 0.37;stroke:url(#Degradado_sin_nombre_4537);}.cls-42{stroke-width:0.38px;stroke-dasharray:4.76 0.24;stroke:url(#Degradado_sin_nombre_4536);}.cls-43{stroke-width:0.32px;stroke-dasharray:4.88 0.12;stroke:url(#Degradado_sin_nombre_4535);}.cls-44{stroke-width:0.25px;stroke:url(#Degradado_sin_nombre_3155);}</style><linearGradient id="Degradado_sin_nombre_3218" x1="518.53" y1="259.24" x2="712.54" y2="259.24" gradientTransform="matrix(-0.06, -1, 1, -0.06, 171.9, 740.22)" gradientUnits="userSpaceOnUse"><stop offset="0.36" stop-color="#0282fc"/><stop offset="1" stop-color="#0324c9" stop-opacity="0"/></linearGradient><linearGradient id="Degradado_sin_nombre_4574" x1="515" y1="259.44" x2="710.07" y2="259.44" gradientTransform="translate(169.17 738.83) rotate(-93.01)" gradientUnits="userSpaceOnUse"><stop offset="0.17" stop-color="#0282fc"/><stop offset="0.36" stop-color="#0281fc" stop-opacity="0.98"/><stop offset="1" stop-color="#0324c9" stop-opacity="0"/></linearGradient><linearGradient id="Degradado_sin_nombre_4573" x1="509.77" y1="259.65" x2="705.74" y2="259.65" gradientTransform="translate(166.4 735.74) rotate(-92.68)" gradientUnits="userSpaceOnUse"><stop offset="0.17" stop-color="#0282fc"/><stop offset="0.36" stop-color="#0281fb" stop-opacity="0.95"/><stop offset="1" stop-color="#0324c9" stop-opacity="0"/></linearGradient><linearGradient id="Degradado_sin_nombre_4572" x1="506.31" y1="259.91" x2="703.18" y2="259.91" gradientTransform="matrix(-0.04, -1, 1, -0.04, 163.67, 734.35)" gradientUnits="userSpaceOnUse"><stop offset="0.17" stop-color="#0282fc"/><stop offset="0.36" stop-color="#0280fb" stop-opacity="0.93"/><stop offset="1" stop-color="#0324c9" stop-opacity="0"/></linearGradient><linearGradient id="Degradado_sin_nombre_4571" x1="502.9" y1="260.19" x2="700.59" y2="260.19" gradientTransform="translate(160.94 732.96) rotate(-92.01)" gradientUnits="userSpaceOnUse"><stop offset="0.17" stop-color="#0282fc"/><stop offset="0.36" stop-color="#0280fb" stop-opacity="0.9"/><stop offset="1" stop-color="#0324c9" stop-opacity="0"/></linearGradient><linearGradient id="Degradado_sin_nombre_4570" x1="498.63" y1="259.61" x2="697.06" y2="259.61" gradientTransform="translate(159.03 730.7) rotate(-91.67)" gradientUnits="userSpaceOnUse"><stop offset="0.17" stop-color="#0282fc"/><stop offset="0.36" stop-color="#027ffb" stop-opacity="0.88"/><stop offset="1" stop-color="#0324c9" stop-opacity="0"/></linearGradient><linearGradient id="Degradado_sin_nombre_4569" x1="495.29" y1="259.95" x2="694.39" y2="259.95" gradientTransform="matrix(-0.02, -1, 1, -0.02, 156.3, 729.31)" gradientUnits="userSpaceOnUse"><stop offset="0.17" stop-color="#0282fc"/><stop offset="0.36" stop-color="#027ffa" stop-opacity="0.85"/><stop offset="1" stop-color="#0324c9" stop-opacity="0"/></linearGradient><linearGradient id="Degradado_sin_nombre_4568" x1="491.17" y1="261.21" x2="691.04" y2="261.21" gradientTransform="translate(152.71 727.09) rotate(-91)" gradientUnits="userSpaceOnUse"><stop offset="0.17" stop-color="#0282fc"/><stop offset="0.36" stop-color="#027efa" stop-opacity="0.83"/><stop offset="1" stop-color="#0324c9" stop-opacity="0"/></linearGradient><linearGradient id="Degradado_sin_nombre_4567" x1="487.92" y1="261.59" x2="688.33" y2="261.59" gradientTransform="translate(149.97 725.7) rotate(-90.66)" gradientUnits="userSpaceOnUse"><stop offset="0.17" stop-color="#0282fc"/><stop offset="0.36" stop-color="#027efa" stop-opacity="0.8"/><stop offset="1" stop-color="#0324c9" stop-opacity="0"/></linearGradient><linearGradient id="Degradado_sin_nombre_4566" x1="483.81" y1="261.13" x2="684.65" y2="261.13" gradientTransform="translate(148.07 723.44) rotate(-90.32)" gradientUnits="userSpaceOnUse"><stop offset="0.17" stop-color="#0282fc"/><stop offset="0.36" stop-color="#027df9" stop-opacity="0.78"/><stop offset="1" stop-color="#0324c9" stop-opacity="0"/></linearGradient><linearGradient id="Degradado_sin_nombre_4565" x1="480.65" y1="261.57" x2="681.87" y2="261.57" gradientTransform="translate(145.34 722.05) rotate(-89.98) scale(0.99)" gradientUnits="userSpaceOnUse"><stop offset="0.17" stop-color="#0282fc"/><stop offset="0.36" stop-color="#027df9" stop-opacity="0.76"/><stop offset="1" stop-color="#0324c9" stop-opacity="0"/></linearGradient><linearGradient id="Degradado_sin_nombre_4564" x1="476.72" y1="262.95" x2="678.17" y2="262.95" gradientTransform="translate(141.74 719.83) rotate(-89.64) scale(0.99)" gradientUnits="userSpaceOnUse"><stop offset="0.17" stop-color="#0282fc"/><stop offset="0.36" stop-color="#027cf9" stop-opacity="0.73"/><stop offset="1" stop-color="#0324c9" stop-opacity="0"/></linearGradient><linearGradient id="Degradado_sin_nombre_4563" x1="472.73" y1="262.59" x2="674.38" y2="262.59" gradientTransform="translate(139.84 717.57) rotate(-89.3) scale(0.99)" gradientUnits="userSpaceOnUse"><stop offset="0.17" stop-color="#0282fc"/><stop offset="0.36" stop-color="#027cf8" stop-opacity="0.71"/><stop offset="1" stop-color="#0324c9" stop-opacity="0"/></linearGradient><linearGradient id="Degradado_sin_nombre_4562" x1="469.71" y1="263.1" x2="671.48" y2="263.1" gradientTransform="matrix(0.02, -0.99, 0.99, 0.02, 137.11, 716.18)" gradientUnits="userSpaceOnUse"><stop offset="0.17" stop-color="#0282fc"/><stop offset="0.36" stop-color="#027bf8" stop-opacity="0.68"/><stop offset="1" stop-color="#0324c9" stop-opacity="0"/></linearGradient><linearGradient id="Degradado_sin_nombre_4561" x1="466.74" y1="263.63" x2="668.55" y2="263.63" gradientTransform="translate(134.38 714.79) rotate(-88.62) scale(0.99)" gradientUnits="userSpaceOnUse"><stop offset="0.17" stop-color="#0282fc"/><stop offset="0.36" stop-color="#027bf8" stop-opacity="0.66"/><stop offset="1" stop-color="#0324c9" stop-opacity="0"/></linearGradient><linearGradient id="Degradado_sin_nombre_4560" x1="462.09" y1="264.31" x2="663.78" y2="264.31" gradientTransform="matrix(0.03, -0.99, 0.99, 0.03, 131.61, 711.7)" gradientUnits="userSpaceOnUse"><stop offset="0.17" stop-color="#0282fc"/><stop offset="0.36" stop-color="#027af8" stop-opacity="0.63"/><stop offset="1" stop-color="#0324c9" stop-opacity="0"/></linearGradient><linearGradient id="Degradado_sin_nombre_4559" x1="459.22" y1="264.9" x2="660.79" y2="264.9" gradientTransform="translate(128.88 710.31) rotate(-87.95) scale(0.99)" gradientUnits="userSpaceOnUse"><stop offset="0.17" stop-color="#0282fc"/><stop offset="0.36" stop-color="#027af7" stop-opacity="0.61"/><stop offset="1" stop-color="#0324c9" stop-opacity="0"/></linearGradient><linearGradient id="Degradado_sin_nombre_4558" x1="456.4" y1="265.51" x2="657.76" y2="265.51" gradientTransform="translate(126.15 708.92) rotate(-87.6) scale(0.99)" gradientUnits="userSpaceOnUse"><stop offset="0.17" stop-color="#0282fc"/><stop offset="0.36" stop-color="#0279f7" stop-opacity="0.59"/><stop offset="1" stop-color="#0324c9" stop-opacity="0"/></linearGradient><linearGradient id="Degradado_sin_nombre_4557" x1="452.68" y1="265.33" x2="653.72" y2="265.33" gradientTransform="matrix(0.05, -0.99, 0.99, 0.05, 124.24, 706.66)" gradientUnits="userSpaceOnUse"><stop offset="0.17" stop-color="#0282fc"/><stop offset="0.36" stop-color="#0279f7" stop-opacity="0.56"/><stop offset="1" stop-color="#0324c9" stop-opacity="0"/></linearGradient><linearGradient id="Degradado_sin_nombre_4556" x1="449.19" y1="266.96" x2="649.8" y2="266.96" gradientTransform="matrix(0.05, -0.99, 0.99, 0.05, 120.65, 704.44)" gradientUnits="userSpaceOnUse"><stop offset="0.17" stop-color="#0282fc"/><stop offset="0.36" stop-color="#0278f6" stop-opacity="0.54"/><stop offset="1" stop-color="#0324c9" stop-opacity="0"/></linearGradient><linearGradient id="Degradado_sin_nombre_4555" x1="446.53" y1="267.64" x2="646.68" y2="267.64" gradientTransform="matrix(0.06, -0.99, 0.99, 0.06, 117.92, 703.05)" gradientUnits="userSpaceOnUse"><stop offset="0.17" stop-color="#0282fc"/><stop offset="0.36" stop-color="#0278f6" stop-opacity="0.51"/><stop offset="1" stop-color="#0324c9" stop-opacity="0"/></linearGradient><linearGradient id="Degradado_sin_nombre_4554" x1="442.96" y1="267.56" x2="642.54" y2="267.56" gradientTransform="translate(116.01 700.79) rotate(-86.25) scale(0.99)" gradientUnits="userSpaceOnUse"><stop offset="0.17" stop-color="#0282fc"/><stop offset="0.36" stop-color="#0277f6" stop-opacity="0.49"/><stop offset="1" stop-color="#0324c9" stop-opacity="0"/></linearGradient><linearGradient id="Degradado_sin_nombre_4553" x1="440.4" y1="268.29" x2="639.36" y2="268.29" gradientTransform="translate(113.28 699.4) rotate(-85.9) scale(0.99)" gradientUnits="userSpaceOnUse"><stop offset="0.17" stop-color="#0282fc"/><stop offset="0.36" stop-color="#0277f6" stop-opacity="0.46"/><stop offset="1" stop-color="#0324c9" stop-opacity="0"/></linearGradient><linearGradient id="Degradado_sin_nombre_4552" x1="437.9" y1="269.05" x2="636.15" y2="269.05" gradientTransform="matrix(0.08, -0.99, 0.99, 0.08, 110.55, 698.01)" gradientUnits="userSpaceOnUse"><stop offset="0.17" stop-color="#0282fc"/><stop offset="0.36" stop-color="#0276f5" stop-opacity="0.44"/><stop offset="1" stop-color="#0324c9" stop-opacity="0"/></linearGradient><linearGradient id="Degradado_sin_nombre_4551" x1="433.73" y1="270.04" x2="631.11" y2="270.04" gradientTransform="translate(107.78 694.93) rotate(-85.23) scale(0.99)" gradientUnits="userSpaceOnUse"><stop offset="0.17" stop-color="#0282fc"/><stop offset="0.36" stop-color="#0276f5" stop-opacity="0.41"/><stop offset="1" stop-color="#0324c9" stop-opacity="0"/></linearGradient><linearGradient id="Degradado_sin_nombre_4550" x1="431.34" y1="270.85" x2="627.85" y2="270.85" gradientTransform="translate(105.05 693.53) rotate(-84.89) scale(0.99)" gradientUnits="userSpaceOnUse"><stop offset="0.17" stop-color="#0282fc"/><stop offset="0.36" stop-color="#0275f5" stop-opacity="0.39"/><stop offset="1" stop-color="#0324c9" stop-opacity="0"/></linearGradient><linearGradient id="Degradado_sin_nombre_4549" x1="429.01" y1="271.69" x2="624.56" y2="271.69" gradientTransform="translate(102.32 692.14) rotate(-84.55) scale(0.99)" gradientUnits="userSpaceOnUse"><stop offset="0.17" stop-color="#0282fc"/><stop offset="0.36" stop-color="#0275f4" stop-opacity="0.37"/><stop offset="1" stop-color="#0324c9" stop-opacity="0"/></linearGradient><linearGradient id="Degradado_sin_nombre_4548" x1="425.74" y1="271.78" x2="620.24" y2="271.78" gradientTransform="translate(100.42 689.89) rotate(-84.21) scale(0.99)" gradientUnits="userSpaceOnUse"><stop offset="0.17" stop-color="#0282fc"/><stop offset="0.36" stop-color="#0274f4" stop-opacity="0.34"/><stop offset="1" stop-color="#0324c9" stop-opacity="0"/></linearGradient><linearGradient id="Degradado_sin_nombre_4547" x1="422.79" y1="273.66" x2="616.13" y2="273.66" gradientTransform="matrix(0.11, -0.99, 0.99, 0.11, 96.82, 687.67)" gradientUnits="userSpaceOnUse"><stop offset="0.17" stop-color="#0282fc"/><stop offset="0.36" stop-color="#0274f4" stop-opacity="0.32"/><stop offset="1" stop-color="#0324c9" stop-opacity="0"/></linearGradient><linearGradient id="Degradado_sin_nombre_4546" x1="420.63" y1="274.57" x2="612.77" y2="274.57" gradientTransform="translate(94.09 686.27) rotate(-83.53) scale(0.99)" gradientUnits="userSpaceOnUse"><stop offset="0.17" stop-color="#0282fc"/><stop offset="0.36" stop-color="#0273f4" stop-opacity="0.29"/><stop offset="1" stop-color="#0324c9" stop-opacity="0"/></linearGradient><linearGradient id="Degradado_sin_nombre_4545" x1="418.54" y1="275.49" x2="609.4" y2="275.49" gradientTransform="matrix(0.12, -0.99, 0.99, 0.12, 91.36, 684.88)" gradientUnits="userSpaceOnUse"><stop offset="0.17" stop-color="#0282fc"/><stop offset="0.36" stop-color="#0273f3" stop-opacity="0.27"/><stop offset="1" stop-color="#0324c9" stop-opacity="0"/></linearGradient><linearGradient id="Degradado_sin_nombre_4544" x1="415.49" y1="275.7" x2="604.98" y2="275.7" gradientTransform="matrix(0.12, -0.99, 0.99, 0.12, 89.46, 682.62)" gradientUnits="userSpaceOnUse"><stop offset="0.17" stop-color="#0282fc"/><stop offset="0.36" stop-color="#0272f3" stop-opacity="0.24"/><stop offset="1" stop-color="#0324c9" stop-opacity="0"/></linearGradient><linearGradient id="Degradado_sin_nombre_4543" x1="412.8" y1="277.69" x2="600.82" y2="277.69" gradientTransform="translate(85.86 680.4) rotate(-82.52) scale(0.99)" gradientUnits="userSpaceOnUse"><stop offset="0.17" stop-color="#0282fc"/><stop offset="0.36" stop-color="#0272f3" stop-opacity="0.22"/><stop offset="1" stop-color="#0324c9" stop-opacity="0"/></linearGradient><linearGradient id="Degradado_sin_nombre_4542" x1="410.88" y1="278.68" x2="597.4" y2="278.68" gradientTransform="translate(83.13 679.01) rotate(-82.18)" gradientUnits="userSpaceOnUse"><stop offset="0.17" stop-color="#0282fc"/><stop offset="0.36" stop-color="#0271f2" stop-opacity="0.2"/><stop offset="1" stop-color="#0324c9" stop-opacity="0"/></linearGradient><linearGradient id="Degradado_sin_nombre_4541" x1="408" y1="278.97" x2="592.92" y2="278.97" gradientTransform="matrix(0.14, -0.99, 0.99, 0.14, 81.23, 676.76)" gradientUnits="userSpaceOnUse"><stop offset="0.17" stop-color="#0282fc"/><stop offset="0.36" stop-color="#0271f2" stop-opacity="0.17"/><stop offset="1" stop-color="#0324c9" stop-opacity="0"/></linearGradient><linearGradient id="Degradado_sin_nombre_4540" x1="406.2" y1="280.01" x2="589.47" y2="280.01" gradientTransform="matrix(0.15, -0.99, 0.99, 0.15, 78.49, 675.36)" gradientUnits="userSpaceOnUse"><stop offset="0.17" stop-color="#0282fc"/><stop offset="0.36" stop-color="#0270f2" stop-opacity="0.15"/><stop offset="1" stop-color="#0324c9" stop-opacity="0"/></linearGradient><linearGradient id="Degradado_sin_nombre_4539" x1="404.45" y1="281.07" x2="586" y2="281.07" gradientTransform="matrix(0.15, -0.98, 0.98, 0.15, 75.76, 673.97)" gradientUnits="userSpaceOnUse"><stop offset="0.17" stop-color="#0282fc"/><stop offset="0.36" stop-color="#0270f1" stop-opacity="0.12"/><stop offset="1" stop-color="#0324c9" stop-opacity="0"/></linearGradient><linearGradient id="Degradado_sin_nombre_4538" x1="400.91" y1="282.48" x2="580.77" y2="282.48" gradientTransform="matrix(0.16, -0.98, 0.98, 0.16, 73, 670.89)" gradientUnits="userSpaceOnUse"><stop offset="0.17" stop-color="#0282fc"/><stop offset="0.36" stop-color="#026ff1" stop-opacity="0.1"/><stop offset="1" stop-color="#0324c9" stop-opacity="0"/></linearGradient><linearGradient id="Degradado_sin_nombre_4537" x1="396.12" y1="283.58" x2="577.29" y2="283.58" gradientTransform="translate(70.26 669.49) rotate(-80.49)" gradientUnits="userSpaceOnUse"><stop offset="0.17" stop-color="#0282fc"/><stop offset="0.36" stop-color="#026ff1" stop-opacity="0.07"/><stop offset="1" stop-color="#0324c9" stop-opacity="0"/></linearGradient><linearGradient id="Degradado_sin_nombre_4536" x1="390.92" y1="284.7" x2="573.74" y2="284.7" gradientTransform="translate(67.53 668.1) rotate(-80.15)" gradientUnits="userSpaceOnUse"><stop offset="0.17" stop-color="#0282fc"/><stop offset="0.36" stop-color="#026ef1" stop-opacity="0.05"/><stop offset="1" stop-color="#0324c9" stop-opacity="0"/></linearGradient><linearGradient id="Degradado_sin_nombre_4535" x1="384.6" y1="285.16" x2="569.23" y2="285.16" gradientTransform="translate(65.63 665.85) rotate(-79.82)" gradientUnits="userSpaceOnUse"><stop offset="0.17" stop-color="#0282fc"/><stop offset="0.36" stop-color="#026ef0" stop-opacity="0.02"/><stop offset="1" stop-color="#0324c9" stop-opacity="0"/></linearGradient><linearGradient id="Degradado_sin_nombre_3155" x1="378.62" y1="287.37" x2="565.1" y2="287.37" gradientTransform="translate(62.03 663.63) rotate(-79.48)" gradientUnits="userSpaceOnUse"><stop offset="0.17" stop-color="#0282fc"/><stop offset="1" stop-color="#0324c9" stop-opacity="0"/></linearGradient></defs><g class="cls-1"><g id="Слой_2" data-name="Слой 2"><g id="BACKGROUND_2" data-name="BACKGROUND 2"><g class="cls-2"><path class="cls-3" d="M794.42,101.78s-80-195.48-350.06-40.59C273.46,159.21,103.49-50,1.5,229.26"/><path class="cls-4" d="M791.7,104.9S710.1-88.55,443.32,65.41C273.93,163.31,106.51-40.85,5.77,230.62"/><path class="cls-5" d="M789,108S705.79-83.4,442.27,69.62C274.41,167.4,109.52-31.71,10,232"/><path class="cls-6" d="M786.27,111.14s-84.79-189.39-345-37.3C274.88,171.5,112.53-22.58,14.3,233.32"/><path class="cls-7" d="M783.55,114.27S697.17-73.11,440.19,78.05C275.35,175.6,115.54-13.44,18.56,234.68"/><path class="cls-8" d="M780.84,117.39S692.86-68,439.14,82.26C275.83,179.69,118.55-4.3,22.83,236"/><path class="cls-9" d="M778.12,120.51s-89.57-183.32-340-34c-161.8,97.31-316.54-81.64-411,150.9"/><path class="cls-10" d="M775.41,123.63S683.9-58.22,437.06,90.69C276.56,187.52,124.57,14,31.36,238.74"/><path class="cls-11" d="M772.69,126.76S679.55-53.14,436,94.91c-159,96.66-308.44-71.8-400.4,145.18"/><path class="cls-12" d="M770,129.88S675.2-48,435,99.12C277.45,195.63,130.6,32.25,39.89,241.44"/><path class="cls-13" d="M767.26,133S670.85-43,433.93,103.34C277.9,199.68,133.61,41.39,44.16,242.8"/><path class="cls-14" d="M764.55,136.12s-98-174-331.66-28.57c-154.54,96.19-296.27-57-384.47,136.6"/><path class="cls-15" d="M761.83,139.24s-99.67-172-330-27.48c-153,96-292.21-52.1-379.15,133.74"/><path class="cls-16" d="M759.12,142.37S657.82-27.66,430.8,116C279.25,211.87,142.64,68.8,57,246.86"/><path class="cls-17" d="M756.4,145.49s-102.92-168-326.64-25.3c-150.06,95.75-284.11-42.25-368.54,128"/><path class="cls-18" d="M753.68,148.61s-104.54-166-325-24.2C280.16,220,148.66,87.07,65.48,249.56"/><path class="cls-19" d="M751,151.73s-106.17-164-323.3-23.11c-147.06,95.46-276-32.41-357.92,122.3"/><path class="cls-20" d="M748.25,154.86S640.47-7.2,426.63,132.84C281.07,228.15,154.69,105.35,74,252.27"/><path class="cls-21" d="M745.54,158s-109.4-160-319.95-20.93C281.53,232.23,157.7,114.49,78.28,253.62"/><path class="cls-22" d="M742.82,161.1s-111-158-318.27-19.84C282,236.31,160.71,123.63,82.55,255"/><path class="cls-23" d="M740.11,164.22S627.49,8.2,423.5,145.48c-141,94.92-259.78-12.72-336.69,110.85"/><path class="cls-24" d="M737.39,167.35s-114.22-154-314.93-17.66c-139.54,94.8-255.73-7.79-331.38,108"/><path class="cls-25" d="M734.68,170.47s-115.83-152-313.26-16.56C283.38,248.58,169.74,151,95.34,259"/><path class="cls-26" d="M732,173.59S614.54,23.65,420.37,158.12c-136.52,94.55-247.62,2.06-320.76,102.27"/><path class="cls-27" d="M729.25,176.71s-119-147.91-309.92-14.37c-135,94.43-243.57,7-315.45,99.41"/><path class="cls-28" d="M726.53,179.83S605.92,34,418.29,166.55c-133.49,94.33-239.51,11.9-310.15,96.55"/><path class="cls-29" d="M723.82,183s-122.2-143.82-306.57-12.2c-132,94.22-235.46,16.83-304.84,93.69"/><path class="cls-30" d="M721.1,186.08S597.32,44.31,416.2,175c-130.45,94.11-231.4,21.75-299.53,90.83"/><path class="cls-31" d="M718.38,189.2S593,49.49,415.16,179.19c-128.92,94-227.35,26.67-294.22,88"/><path class="cls-32" d="M715.67,192.32S588.73,54.68,414.12,183.41c-127.4,93.91-223.3,31.59-288.92,85.1"/><path class="cls-33" d="M713,195.45s-128.5-135.58-299.88-7.83c-125.86,93.83-219.24,36.52-283.6,82.25"/><path class="cls-34" d="M710.24,198.57S580.16,65.07,412,191.84c-124.32,93.74-215.19,41.44-278.3,79.38"/><path class="cls-35" d="M707.52,201.69S575.89,70.27,411,196.05c-122.79,93.66-211.14,46.36-273,76.52"/><path class="cls-36" d="M704.81,204.81S571.62,75.48,410,200.26c-121.24,93.58-207.09,51.29-267.68,73.67"/><path class="cls-37" d="M702.09,207.94S567.35,80.69,408.9,204.48c-119.69,93.51-203,56.21-262.37,70.8"/><path class="cls-38" d="M699.38,211.06S563.09,85.91,407.86,208.69c-118.14,93.44-199,61.14-257.06,67.94"/><path class="cls-39" d="M696.66,214.18s-137.82-123-289.84-1.27C290.24,306.29,211.9,279,155.06,278"/><path class="cls-40" d="M694,217.3s-139.36-120.93-288.17-.18c-115,93.32-190.87,71-246.45,62.22"/><path class="cls-41" d="M691.23,220.42s-140.88-118.81-286.5.92c-113.44,93.27-186.81,75.9-241.14,59.35"/><path class="cls-42" d="M688.51,223.55s-142.22-116.48-284.82,2C292,318.94,220.93,306.38,167.86,282.05"/><path class="cls-43" d="M685.8,226.67S542,112.22,402.65,229.76C292.43,323,223.94,315.51,172.13,283.4"/><path class="cls-44" d="M683.08,229.79S537.67,117.36,401.6,234C292.91,327.14,227,324.65,176.39,284.75"/></g></g></g></g></svg>