<svg xmlns="http://www.w3.org/2000/svg" xmlns:xlink="http://www.w3.org/1999/xlink" viewBox="0 0 342.97 762.47"><defs><style>.cls-1{isolation:isolate;}.cls-2{mix-blend-mode:screen;}.cls-10,.cls-11,.cls-12,.cls-13,.cls-14,.cls-15,.cls-16,.cls-17,.cls-18,.cls-19,.cls-20,.cls-21,.cls-22,.cls-23,.cls-24,.cls-25,.cls-26,.cls-27,.cls-28,.cls-29,.cls-3,.cls-30,.cls-31,.cls-32,.cls-33,.cls-34,.cls-4,.cls-5,.cls-6,.cls-7,.cls-8,.cls-9{fill:none;stroke-linecap:round;stroke-linejoin:round;stroke-width:2px;}.cls-3{stroke-dasharray:0 5;stroke:url(#Degradado_sin_nombre_3218);}.cls-4{stroke-dasharray:0.16 4.84;stroke:url(#Degradado_sin_nombre_4179);}.cls-5{stroke-dasharray:0.32 4.68;stroke:url(#Degradado_sin_nombre_4178);}.cls-6{stroke-dasharray:0.48 4.52;stroke:url(#Degradado_sin_nombre_4177);}.cls-7{stroke-dasharray:0.65 4.35;stroke:url(#Degradado_sin_nombre_4176);}.cls-8{stroke-dasharray:0.81 4.19;stroke:url(#Degradado_sin_nombre_4175);}.cls-9{stroke-dasharray:0.97 4.03;stroke:url(#Degradado_sin_nombre_4174);}.cls-10{stroke-dasharray:1.13 3.87;stroke:url(#Degradado_sin_nombre_4173);}.cls-11{stroke-dasharray:1.29 3.71;stroke:url(#Degradado_sin_nombre_4172);}.cls-12{stroke-dasharray:1.45 3.55;stroke:url(#Degradado_sin_nombre_4171);}.cls-13{stroke-dasharray:1.61 3.39;stroke:url(#Degradado_sin_nombre_4170);}.cls-14{stroke-dasharray:1.77 3.23;stroke:url(#Degradado_sin_nombre_4169);}.cls-15{stroke-dasharray:1.94 3.06;stroke:url(#Degradado_sin_nombre_4168);}.cls-16{stroke-dasharray:2.1 2.9;stroke:url(#Degradado_sin_nombre_4167);}.cls-17{stroke-dasharray:2.26 2.74;stroke:url(#Degradado_sin_nombre_4166);}.cls-18{stroke-dasharray:2.42 2.58;stroke:url(#Degradado_sin_nombre_4165);}.cls-19{stroke-dasharray:2.58 2.42;stroke:url(#Degradado_sin_nombre_4164);}.cls-20{stroke-dasharray:2.74 2.26;stroke:url(#Degradado_sin_nombre_4163);}.cls-21{stroke-dasharray:2.9 2.1;stroke:url(#Degradado_sin_nombre_4162);}.cls-22{stroke-dasharray:3.06 1.94;stroke:url(#Degradado_sin_nombre_4161);}.cls-23{stroke-dasharray:3.23 1.77;stroke:url(#Degradado_sin_nombre_4160);}.cls-24{stroke-dasharray:3.39 1.61;stroke:url(#Degradado_sin_nombre_4159);}.cls-25{stroke-dasharray:3.55 1.45;stroke:url(#Degradado_sin_nombre_4158);}.cls-26{stroke-dasharray:3.71 1.29;stroke:url(#Degradado_sin_nombre_4157);}.cls-27{stroke-dasharray:3.87 1.13;stroke:url(#Degradado_sin_nombre_4156);}.cls-28{stroke-dasharray:4.03 0.97;stroke:url(#Degradado_sin_nombre_4155);}.cls-29{stroke-dasharray:4.19 0.81;stroke:url(#Degradado_sin_nombre_4154);}.cls-30{stroke-dasharray:4.35 0.65;stroke:url(#Degradado_sin_nombre_4153);}.cls-31{stroke-dasharray:4.52 0.48;stroke:url(#Degradado_sin_nombre_4152);}.cls-32{stroke-dasharray:4.68 0.32;stroke:url(#Degradado_sin_nombre_4151);}.cls-33{stroke-dasharray:4.84 0.16;stroke:url(#Degradado_sin_nombre_4150);}.cls-34{stroke:url(#Degradado_sin_nombre_3155);}</style><linearGradient id="Degradado_sin_nombre_3218" x1="241.87" y1="381.24" x2="342.97" y2="381.24" gradientUnits="userSpaceOnUse"><stop offset="0.36" stop-color="#0282fc"/><stop offset="1" stop-color="#0324c9" stop-opacity="0"/></linearGradient><linearGradient id="Degradado_sin_nombre_4179" x1="234.54" y1="382.88" x2="337.74" y2="382.88" gradientUnits="userSpaceOnUse"><stop offset="0.17" stop-color="#0282fc"/><stop offset="0.36" stop-color="#0281fc" stop-opacity="0.97"/><stop offset="1" stop-color="#0324c9" stop-opacity="0"/></linearGradient><linearGradient id="Degradado_sin_nombre_4178" x1="227.21" y1="384.53" x2="332.75" y2="384.53" gradientUnits="userSpaceOnUse"><stop offset="0.17" stop-color="#0282fc"/><stop offset="0.36" stop-color="#0281fb" stop-opacity="0.94"/><stop offset="1" stop-color="#0324c9" stop-opacity="0"/></linearGradient><linearGradient id="Degradado_sin_nombre_4177" x1="219.88" y1="386.18" x2="327.65" y2="386.18" gradientUnits="userSpaceOnUse"><stop offset="0.17" stop-color="#0282fc"/><stop offset="0.36" stop-color="#0280fb" stop-opacity="0.9"/><stop offset="1" stop-color="#0324c9" stop-opacity="0"/></linearGradient><linearGradient id="Degradado_sin_nombre_4176" x1="212.55" y1="387.82" x2="322.55" y2="387.82" gradientUnits="userSpaceOnUse"><stop offset="0.17" stop-color="#0282fc"/><stop offset="0.36" stop-color="#027ffa" stop-opacity="0.87"/><stop offset="1" stop-color="#0324c9" stop-opacity="0"/></linearGradient><linearGradient id="Degradado_sin_nombre_4175" x1="205.22" y1="389.47" x2="317.46" y2="389.47" gradientUnits="userSpaceOnUse"><stop offset="0.17" stop-color="#0282fc"/><stop offset="0.36" stop-color="#027ffa" stop-opacity="0.84"/><stop offset="1" stop-color="#0324c9" stop-opacity="0"/></linearGradient><linearGradient id="Degradado_sin_nombre_4174" x1="197.89" y1="391.12" x2="312.38" y2="391.12" gradientUnits="userSpaceOnUse"><stop offset="0.17" stop-color="#0282fc"/><stop offset="0.36" stop-color="#027efa" stop-opacity="0.81"/><stop offset="1" stop-color="#0324c9" stop-opacity="0"/></linearGradient><linearGradient id="Degradado_sin_nombre_4173" x1="190.56" y1="392.77" x2="307.3" y2="392.77" gradientUnits="userSpaceOnUse"><stop offset="0.17" stop-color="#0282fc"/><stop offset="0.36" stop-color="#027df9" stop-opacity="0.77"/><stop offset="1" stop-color="#0324c9" stop-opacity="0"/></linearGradient><linearGradient id="Degradado_sin_nombre_4172" x1="183.23" y1="394.41" x2="302.23" y2="394.41" gradientUnits="userSpaceOnUse"><stop offset="0.17" stop-color="#0282fc"/><stop offset="0.36" stop-color="#027df9" stop-opacity="0.74"/><stop offset="1" stop-color="#0324c9" stop-opacity="0"/></linearGradient><linearGradient id="Degradado_sin_nombre_4171" x1="175.9" y1="396.06" x2="297.16" y2="396.06" gradientUnits="userSpaceOnUse"><stop offset="0.17" stop-color="#0282fc"/><stop offset="0.36" stop-color="#027cf9" stop-opacity="0.71"/><stop offset="1" stop-color="#0324c9" stop-opacity="0"/></linearGradient><linearGradient id="Degradado_sin_nombre_4170" x1="168.57" y1="397.71" x2="292.1" y2="397.71" gradientUnits="userSpaceOnUse"><stop offset="0.17" stop-color="#0282fc"/><stop offset="0.36" stop-color="#027bf8" stop-opacity="0.68"/><stop offset="1" stop-color="#0324c9" stop-opacity="0"/></linearGradient><linearGradient id="Degradado_sin_nombre_4169" x1="161.24" y1="399.36" x2="287.05" y2="399.36" gradientUnits="userSpaceOnUse"><stop offset="0.17" stop-color="#0282fc"/><stop offset="0.36" stop-color="#027bf8" stop-opacity="0.65"/><stop offset="1" stop-color="#0324c9" stop-opacity="0"/></linearGradient><linearGradient id="Degradado_sin_nombre_4168" x1="153.91" y1="401" x2="282" y2="401" gradientUnits="userSpaceOnUse"><stop offset="0.17" stop-color="#0282fc"/><stop offset="0.36" stop-color="#027af7" stop-opacity="0.61"/><stop offset="1" stop-color="#0324c9" stop-opacity="0"/></linearGradient><linearGradient id="Degradado_sin_nombre_4167" x1="146.58" y1="402.65" x2="276.96" y2="402.65" gradientUnits="userSpaceOnUse"><stop offset="0.17" stop-color="#0282fc"/><stop offset="0.36" stop-color="#0279f7" stop-opacity="0.58"/><stop offset="1" stop-color="#0324c9" stop-opacity="0"/></linearGradient><linearGradient id="Degradado_sin_nombre_4166" x1="139.24" y1="404.3" x2="271.93" y2="404.3" gradientUnits="userSpaceOnUse"><stop offset="0.17" stop-color="#0282fc"/><stop offset="0.36" stop-color="#0279f7" stop-opacity="0.55"/><stop offset="1" stop-color="#0324c9" stop-opacity="0"/></linearGradient><linearGradient id="Degradado_sin_nombre_4165" x1="131.91" y1="405.94" x2="266.9" y2="405.94" gradientUnits="userSpaceOnUse"><stop offset="0.17" stop-color="#0282fc"/><stop offset="0.36" stop-color="#0278f6" stop-opacity="0.52"/><stop offset="1" stop-color="#0324c9" stop-opacity="0"/></linearGradient><linearGradient id="Degradado_sin_nombre_4164" x1="124.58" y1="407.59" x2="261.89" y2="407.59" gradientUnits="userSpaceOnUse"><stop offset="0.17" stop-color="#0282fc"/><stop offset="0.36" stop-color="#0277f6" stop-opacity="0.48"/><stop offset="1" stop-color="#0324c9" stop-opacity="0"/></linearGradient><linearGradient id="Degradado_sin_nombre_4163" x1="117.25" y1="409.24" x2="256.88" y2="409.24" gradientUnits="userSpaceOnUse"><stop offset="0.17" stop-color="#0282fc"/><stop offset="0.36" stop-color="#0276f5" stop-opacity="0.45"/><stop offset="1" stop-color="#0324c9" stop-opacity="0"/></linearGradient><linearGradient id="Degradado_sin_nombre_4162" x1="109.92" y1="410.89" x2="251.88" y2="410.89" gradientUnits="userSpaceOnUse"><stop offset="0.17" stop-color="#0282fc"/><stop offset="0.36" stop-color="#0276f5" stop-opacity="0.42"/><stop offset="1" stop-color="#0324c9" stop-opacity="0"/></linearGradient><linearGradient id="Degradado_sin_nombre_4161" x1="102.59" y1="412.53" x2="246.89" y2="412.53" gradientUnits="userSpaceOnUse"><stop offset="0.17" stop-color="#0282fc"/><stop offset="0.36" stop-color="#0275f5" stop-opacity="0.39"/><stop offset="1" stop-color="#0324c9" stop-opacity="0"/></linearGradient><linearGradient id="Degradado_sin_nombre_4160" x1="95.26" y1="414.18" x2="241.91" y2="414.18" gradientUnits="userSpaceOnUse"><stop offset="0.17" stop-color="#0282fc"/><stop offset="0.36" stop-color="#0274f4" stop-opacity="0.35"/><stop offset="1" stop-color="#0324c9" stop-opacity="0"/></linearGradient><linearGradient id="Degradado_sin_nombre_4159" x1="87.93" y1="415.83" x2="236.95" y2="415.83" gradientUnits="userSpaceOnUse"><stop offset="0.17" stop-color="#0282fc"/><stop offset="0.36" stop-color="#0274f4" stop-opacity="0.32"/><stop offset="1" stop-color="#0324c9" stop-opacity="0"/></linearGradient><linearGradient id="Degradado_sin_nombre_4158" x1="80.6" y1="417.48" x2="232" y2="417.48" gradientUnits="userSpaceOnUse"><stop offset="0.17" stop-color="#0282fc"/><stop offset="0.36" stop-color="#0273f3" stop-opacity="0.29"/><stop offset="1" stop-color="#0324c9" stop-opacity="0"/></linearGradient><linearGradient id="Degradado_sin_nombre_4157" x1="73.27" y1="419.12" x2="227.06" y2="419.12" gradientUnits="userSpaceOnUse"><stop offset="0.17" stop-color="#0282fc"/><stop offset="0.36" stop-color="#0272f3" stop-opacity="0.26"/><stop offset="1" stop-color="#0324c9" stop-opacity="0"/></linearGradient><linearGradient id="Degradado_sin_nombre_4156" x1="65.94" y1="420.77" x2="222.13" y2="420.77" gradientUnits="userSpaceOnUse"><stop offset="0.17" stop-color="#0282fc"/><stop offset="0.36" stop-color="#0272f3" stop-opacity="0.23"/><stop offset="1" stop-color="#0324c9" stop-opacity="0"/></linearGradient><linearGradient id="Degradado_sin_nombre_4155" x1="57.89" y1="422.42" x2="217.23" y2="422.42" gradientUnits="userSpaceOnUse"><stop offset="0.17" stop-color="#0282fc"/><stop offset="0.36" stop-color="#0271f2" stop-opacity="0.19"/><stop offset="1" stop-color="#0324c9" stop-opacity="0"/></linearGradient><linearGradient id="Degradado_sin_nombre_4154" x1="48.25" y1="424.06" x2="212.34" y2="424.06" gradientUnits="userSpaceOnUse"><stop offset="0.17" stop-color="#0282fc"/><stop offset="0.36" stop-color="#0270f2" stop-opacity="0.16"/><stop offset="1" stop-color="#0324c9" stop-opacity="0"/></linearGradient><linearGradient id="Degradado_sin_nombre_4153" x1="38.6" y1="425.71" x2="207.47" y2="425.71" gradientUnits="userSpaceOnUse"><stop offset="0.17" stop-color="#0282fc"/><stop offset="0.36" stop-color="#0270f2" stop-opacity="0.13"/><stop offset="1" stop-color="#0324c9" stop-opacity="0"/></linearGradient><linearGradient id="Degradado_sin_nombre_4152" x1="28.96" y1="427.36" x2="202.62" y2="427.36" gradientUnits="userSpaceOnUse"><stop offset="0.17" stop-color="#0282fc"/><stop offset="0.36" stop-color="#026ff1" stop-opacity="0.1"/><stop offset="1" stop-color="#0324c9" stop-opacity="0"/></linearGradient><linearGradient id="Degradado_sin_nombre_4151" x1="19.31" y1="429.01" x2="197.8" y2="429.01" gradientUnits="userSpaceOnUse"><stop offset="0.17" stop-color="#0282fc"/><stop offset="0.36" stop-color="#026ef1" stop-opacity="0.06"/><stop offset="1" stop-color="#0324c9" stop-opacity="0"/></linearGradient><linearGradient id="Degradado_sin_nombre_4150" x1="9.65" y1="430.65" x2="193" y2="430.65" gradientUnits="userSpaceOnUse"><stop offset="0.17" stop-color="#0282fc"/><stop offset="0.36" stop-color="#026ef0" stop-opacity="0.03"/><stop offset="1" stop-color="#0324c9" stop-opacity="0"/></linearGradient><linearGradient id="Degradado_sin_nombre_3155" y1="432.3" x2="188.23" y2="432.3" gradientUnits="userSpaceOnUse"><stop offset="0.17" stop-color="#0282fc"/><stop offset="1" stop-color="#0324c9" stop-opacity="0"/></linearGradient></defs><g class="cls-1"><g id="Слой_2" data-name="Слой 2"><g id="BACKGROUND_2" data-name="BACKGROUND 2"><g class="cls-2"><path class="cls-3" d="M258.87,761.47s166.72-78.11,27.87-356.75C198.87,228.39,386.39,95.47,242.87,1"/><path class="cls-4" d="M255.75,758.73s164.05-80.87,25.18-354.15C192.3,231,373.46,100.3,235.54,7"/><path class="cls-5" d="M252.63,756s161.92-83.89,22.49-351.54c-89.05-170.93,85.41-299.31-46.91-391.36"/><path class="cls-6" d="M249.51,753.24S409,666.45,269.31,404.3C179.66,236.07,347.61,110,220.88,19.12"/><path class="cls-7" d="M246.39,750.49s157.06-89.67,17.11-346.33c-90.26-165.53,71.18-289.37-49.95-379"/><path class="cls-8" d="M243.27,747.75S397.87,655.19,257.69,404c-90.88-162.83,64.06-284.4-51.47-372.82"/><path class="cls-9" d="M240.15,745s152.13-95.44,11.74-341.12c-91.51-160.13,56.93-279.42-53-366.64"/><path class="cls-10" d="M237,742.26s149.64-98.32,9.05-338.52C153.93,246.32,295.9,129.29,191.56,43.28"/><path class="cls-11" d="M233.91,739.51s147.14-101.19,6.36-335.91c-92.8-154.71,42.7-269.48-56-354.28"/><path class="cls-12" d="M230.79,736.77s144.61-104.06,3.67-333.31C141,251.45,270,139,176.9,55.36"/><path class="cls-13" d="M227.67,734s142.07-106.91,1-330.7C134.52,254,257.11,143.78,169.57,61.4"/><path class="cls-14" d="M224.55,731.28s139.5-109.77-1.71-328.1C128,256.6,244.19,148.61,162.24,67.44"/><path class="cls-15" d="M221.43,728.53S358.35,615.92,217,403c-95.5-143.86,14.23-249.6-62.12-329.56"/><path class="cls-16" d="M218.31,725.79s134.32-115.46-7.09-322.88C115,261.77,218.33,158.27,147.58,79.51"/><path class="cls-17" d="M215.19,723s131.69-118.28-9.78-320.27c-96.93-138.41,0-239.67-65.17-317.22"/><path class="cls-18" d="M212.07,720.3s129.05-121.1-12.46-317.67c-97.67-135.67-7.13-234.7-66.7-311"/><path class="cls-19" d="M209,717.55s126.38-123.9-15.15-315.06C95.39,269.56,179.55,172.76,125.58,97.63"/><path class="cls-20" d="M205.83,714.81S329.53,588.12,188,402.35c-99.17-130.17-21.37-224.76-69.74-298.68"/><path class="cls-21" d="M202.72,712.06s121-129.46-20.54-309.85c-99.95-127.41-28.49-219.79-71.26-292.5"/><path class="cls-22" d="M199.6,709.32s118.25-132.23-23.23-307.25c-100.74-124.63-35.6-214.81-72.78-286.32"/><path class="cls-23" d="M196.48,706.57s115.5-135-25.92-304.64C69,280.09,127.84,192.09,96.26,121.79"/><path class="cls-24" d="M193.36,703.83s112.73-137.69-28.61-302c-102.36-119-49.84-204.87-75.82-274"/><path class="cls-25" d="M190.24,701.08s109.93-140.39-31.3-299.43C55.74,285.43,102,201.75,81.6,133.87"/><path class="cls-26" d="M187.12,698.34s107.12-143.08-34-296.83c-104-113.39-64.08-194.93-78.86-261.6"/><path class="cls-27" d="M184,695.59s104.29-145.73-36.67-294.22C42.4,290.84,76.13,211.41,66.94,146"/><path class="cls-28" d="M180.88,692.85s101.44-148.36-39.36-291.62C35.71,293.57,63.2,216.24,59.61,152"/><path class="cls-29" d="M177.76,690.1s98.57-151-42-289C29,296.33,50.27,221.07,52.28,158"/><path class="cls-30" d="M174.64,687.35S270.32,533.82,129.9,401C22.27,299.11,37.34,225.9,45,164.07"/><path class="cls-31" d="M171.52,684.61s92.78-156.08-47.43-283.8C15.53,301.92,24.42,230.73,37.62,170.11"/><path class="cls-32" d="M168.4,681.86s89.86-158.58-50.12-281.19c-109.5-95.92-106.79-165.11-88-224.52"/><path class="cls-33" d="M165.28,679.12s86.93-161.06-52.81-278.59C2,307.62-1.44,240.39,23,182.19"/><path class="cls-34" d="M162.16,676.37s84-163.49-55.5-276c-111.43-89.87-121-155.17-91-212.16"/></g></g></g></g></svg>