<svg xmlns="http://www.w3.org/2000/svg" xmlns:xlink="http://www.w3.org/1999/xlink" viewBox="0 0 750 500"><defs><style>.cls-1,.cls-100,.cls-29,.cls-30,.cls-31,.cls-32,.cls-33,.cls-34,.cls-35,.cls-36,.cls-37,.cls-38,.cls-39,.cls-40,.cls-41,.cls-42,.cls-43,.cls-44,.cls-45,.cls-46,.cls-47,.cls-48,.cls-49,.cls-50,.cls-51,.cls-52,.cls-53,.cls-54,.cls-55,.cls-56,.cls-57,.cls-58,.cls-59,.cls-60,.cls-61,.cls-62,.cls-63,.cls-64,.cls-65,.cls-66,.cls-67,.cls-68,.cls-69,.cls-70,.cls-71,.cls-72,.cls-73,.cls-74,.cls-75,.cls-76,.cls-77,.cls-78,.cls-79,.cls-80,.cls-81,.cls-82,.cls-83,.cls-84,.cls-85,.cls-86,.cls-87,.cls-88,.cls-89,.cls-90,.cls-91,.cls-92,.cls-93,.cls-94,.cls-95,.cls-96,.cls-97,.cls-98,.cls-99{fill:none;}.cls-2{isolation:isolate;}.cls-3{clip-path:url(#clip-path);}.cls-4{fill:url(#Безымянный_градиент_22);}.cls-5{fill:url(#Безымянный_градиент_27);}.cls-6{fill:url(#Безымянный_градиент_50);}.cls-28,.cls-7,.cls-8,.cls-9{mix-blend-mode:screen;}.cls-7{fill:url(#Безымянный_градиент_57);}.cls-8{fill:url(#Безымянный_градиент_54);}.cls-10{fill:url(#Degradado_sin_nombre_4584);}.cls-11{fill:url(#Degradado_sin_nombre_4584-2);}.cls-12{fill:url(#Degradado_sin_nombre_4584-3);}.cls-13{fill:url(#Degradado_sin_nombre_4584-4);}.cls-14{fill:url(#Degradado_sin_nombre_4584-5);}.cls-15{fill:url(#Degradado_sin_nombre_4584-6);}.cls-16{fill:url(#Degradado_sin_nombre_4584-7);}.cls-17{fill:url(#Degradado_sin_nombre_4584-8);}.cls-18{fill:url(#Degradado_sin_nombre_4584-9);}.cls-19{fill:url(#Degradado_sin_nombre_4584-10);}.cls-20{fill:url(#Degradado_sin_nombre_4584-11);}.cls-21{fill:url(#Degradado_sin_nombre_4584-12);}.cls-22{fill:url(#Degradado_sin_nombre_4584-13);}.cls-23{fill:url(#Degradado_sin_nombre_4584-14);}.cls-24{fill:#0324c9;}.cls-25{clip-path:url(#clip-path-2);}.cls-26{fill:url(#Degradado_sin_nombre_45);}.cls-27{fill:url(#Degradado_sin_nombre_16);}.cls-28{fill:url(#Degradado_sin_nombre_36);}.cls-100,.cls-29,.cls-61,.cls-62,.cls-63,.cls-64,.cls-65,.cls-66,.cls-67,.cls-68,.cls-69,.cls-70,.cls-71,.cls-72,.cls-73,.cls-74,.cls-75,.cls-76,.cls-77,.cls-78,.cls-79,.cls-80,.cls-81,.cls-82,.cls-83,.cls-84,.cls-85,.cls-86,.cls-87,.cls-88,.cls-89,.cls-90,.cls-91,.cls-92,.cls-93,.cls-94,.cls-95,.cls-96,.cls-97,.cls-98,.cls-99{stroke-linecap:round;stroke-linejoin:round;}.cls-29{stroke-dasharray:1 2;stroke:url(#Degradado_sin_nombre_3155);}.cls-30,.cls-31,.cls-32,.cls-33,.cls-34,.cls-35,.cls-36,.cls-37,.cls-38,.cls-39,.cls-40,.cls-41,.cls-42,.cls-43,.cls-44,.cls-45,.cls-46,.cls-47,.cls-48,.cls-49,.cls-50,.cls-51,.cls-52,.cls-53,.cls-54,.cls-55,.cls-56,.cls-57,.cls-58,.cls-59,.cls-60{stroke-miterlimit:10;}.cls-30{stroke-width:1.06px;stroke-dasharray:1.06 1.93;stroke:url(#Degradado_sin_nombre_3155-2);}.cls-31{stroke-width:1.13px;stroke-dasharray:1.13 1.87;stroke:url(#Degradado_sin_nombre_3155-3);}.cls-32{stroke-width:1.19px;stroke-dasharray:1.19 1.81;stroke:url(#Degradado_sin_nombre_3155-4);}.cls-33{stroke-width:1.26px;stroke-dasharray:1.26 1.74;stroke:url(#Degradado_sin_nombre_3155-5);}.cls-34{stroke-width:1.32px;stroke-dasharray:1.32 1.68;stroke:url(#Degradado_sin_nombre_3155-6);}.cls-35{stroke-width:1.39px;stroke-dasharray:1.38 1.61;stroke:url(#Degradado_sin_nombre_3155-7);}.cls-36{stroke-width:1.45px;stroke-dasharray:1.45 1.55;stroke:url(#Degradado_sin_nombre_3155-8);}.cls-37{stroke-width:1.52px;stroke-dasharray:1.52 1.49;stroke:url(#Degradado_sin_nombre_3155-9);}.cls-38{stroke-width:1.58px;stroke-dasharray:1.58 1.42;stroke:url(#Degradado_sin_nombre_3155-10);}.cls-39{stroke-width:1.65px;stroke-dasharray:1.65 1.36;stroke:url(#Degradado_sin_nombre_3155-11);}.cls-40{stroke-width:1.71px;stroke-dasharray:1.71 1.29;stroke:url(#Degradado_sin_nombre_3155-12);}.cls-41{stroke-width:1.77px;stroke-dasharray:1.77 1.23;stroke:url(#Degradado_sin_nombre_3155-13);}.cls-42{stroke-width:1.84px;stroke-dasharray:1.84 1.16;stroke:url(#Degradado_sin_nombre_3155-14);}.cls-43{stroke-width:1.9px;stroke-dasharray:1.9 1.1;stroke:url(#Degradado_sin_nombre_3155-15);}.cls-44{stroke-width:1.97px;stroke-dasharray:1.97 1.03;stroke:url(#Degradado_sin_nombre_3155-16);}.cls-45{stroke-width:2.03px;stroke-dasharray:2.03 0.97;stroke:url(#Degradado_sin_nombre_3155-17);}.cls-46{stroke-width:2.1px;stroke-dasharray:2.1 0.9;stroke:url(#Degradado_sin_nombre_3155-18);}.cls-47{stroke-width:2.16px;stroke-dasharray:2.16 0.84;stroke:url(#Degradado_sin_nombre_3155-19);}.cls-48{stroke-width:2.23px;stroke-dasharray:2.23 0.77;stroke:url(#Degradado_sin_nombre_3155-20);}.cls-49{stroke-width:2.29px;stroke-dasharray:2.29 0.71;stroke:url(#Degradado_sin_nombre_3155-21);}.cls-50{stroke-width:2.35px;stroke-dasharray:2.35 0.65;stroke:url(#Degradado_sin_nombre_3155-22);}.cls-51{stroke-width:2.42px;stroke-dasharray:2.42 0.58;stroke:url(#Degradado_sin_nombre_3155-23);}.cls-52{stroke-width:2.48px;stroke-dasharray:2.48 0.52;stroke:url(#Degradado_sin_nombre_3155-24);}.cls-53{stroke-width:2.55px;stroke-dasharray:2.55 0.45;stroke:url(#Degradado_sin_nombre_3155-25);}.cls-54{stroke-width:2.61px;stroke-dasharray:2.61 0.39;stroke:url(#Degradado_sin_nombre_3155-26);}.cls-55{stroke-width:2.68px;stroke-dasharray:2.68 0.32;stroke:url(#Degradado_sin_nombre_3155-27);}.cls-56{stroke-width:2.74px;stroke-dasharray:2.74 0.26;stroke:url(#Degradado_sin_nombre_3155-28);}.cls-57{stroke-width:2.81px;stroke-dasharray:2.81 0.19;stroke:url(#Degradado_sin_nombre_3155-29);}.cls-58{stroke-width:2.87px;stroke-dasharray:2.87 0.13;stroke:url(#Degradado_sin_nombre_3155-30);}.cls-59{stroke-width:2.94px;stroke-dasharray:2.94 0.06;stroke:url(#Degradado_sin_nombre_3155-31);}.cls-60,.cls-61{stroke-width:3px;}.cls-60{stroke:url(#Degradado_sin_nombre_3155-32);}.cls-61{stroke-dasharray:0 5;stroke:url(#Degradado_sin_nombre_3218);}.cls-62{stroke-width:2.93px;stroke-dasharray:0.12 4.88;stroke:url(#Degradado_sin_nombre_4574);}.cls-63{stroke-width:2.87px;stroke-dasharray:0.24 4.76;stroke:url(#Degradado_sin_nombre_4573);}.cls-64{stroke-width:2.8px;stroke-dasharray:0.37 4.63;stroke:url(#Degradado_sin_nombre_4572);}.cls-65{stroke-width:2.73px;stroke-dasharray:0.49 4.51;stroke:url(#Degradado_sin_nombre_4571);}.cls-66{stroke-width:2.66px;stroke-dasharray:0.61 4.39;stroke:url(#Degradado_sin_nombre_4570);}.cls-67{stroke-width:2.6px;stroke-dasharray:0.73 4.27;stroke:url(#Degradado_sin_nombre_4569);}.cls-68{stroke-width:2.53px;stroke-dasharray:0.85 4.15;stroke:url(#Degradado_sin_nombre_4568);}.cls-69{stroke-width:2.46px;stroke-dasharray:0.98 4.02;stroke:url(#Degradado_sin_nombre_4567);}.cls-70{stroke-width:2.4px;stroke-dasharray:1.1 3.9;stroke:url(#Degradado_sin_nombre_4566);}.cls-71{stroke-width:2.33px;stroke-dasharray:1.22 3.78;stroke:url(#Degradado_sin_nombre_4565);}.cls-72{stroke-width:2.26px;stroke-dasharray:1.34 3.66;stroke:url(#Degradado_sin_nombre_4564);}.cls-73{stroke-width:2.2px;stroke-dasharray:1.46 3.54;stroke:url(#Degradado_sin_nombre_4563);}.cls-74{stroke-width:2.13px;stroke-dasharray:1.59 3.41;stroke:url(#Degradado_sin_nombre_4562);}.cls-75{stroke-width:2.06px;stroke-dasharray:1.71 3.29;stroke:url(#Degradado_sin_nombre_4561);}.cls-76{stroke-width:1.99px;stroke-dasharray:1.83 3.17;stroke:url(#Degradado_sin_nombre_4560);}.cls-77{stroke-width:1.93px;stroke-dasharray:1.95 3.05;stroke:url(#Degradado_sin_nombre_4559);}.cls-78{stroke-width:1.86px;stroke-dasharray:2.07 2.93;stroke:url(#Degradado_sin_nombre_4558);}.cls-79{stroke-width:1.79px;stroke-dasharray:2.2 2.8;stroke:url(#Degradado_sin_nombre_4557);}.cls-80{stroke-width:1.73px;stroke-dasharray:2.32 2.68;stroke:url(#Degradado_sin_nombre_4556);}.cls-81{stroke-width:1.66px;stroke-dasharray:2.44 2.56;stroke:url(#Degradado_sin_nombre_4555);}.cls-82{stroke-width:1.59px;stroke-dasharray:2.56 2.44;stroke:url(#Degradado_sin_nombre_4554);}.cls-83{stroke-width:1.52px;stroke-dasharray:2.68 2.32;stroke:url(#Degradado_sin_nombre_4553);}.cls-84{stroke-width:1.46px;stroke-dasharray:2.8 2.2;stroke:url(#Degradado_sin_nombre_4552);}.cls-85{stroke-width:1.39px;stroke-dasharray:2.93 2.07;stroke:url(#Degradado_sin_nombre_4551);}.cls-86{stroke-width:1.32px;stroke-dasharray:3.05 1.95;stroke:url(#Degradado_sin_nombre_4550);}.cls-87{stroke-width:1.26px;stroke-dasharray:3.17 1.83;stroke:url(#Degradado_sin_nombre_4549);}.cls-88{stroke-width:1.19px;stroke-dasharray:3.29 1.71;stroke:url(#Degradado_sin_nombre_4548);}.cls-89{stroke-width:1.12px;stroke-dasharray:3.41 1.59;stroke:url(#Degradado_sin_nombre_4547);}.cls-90{stroke-width:1.05px;stroke-dasharray:3.54 1.46;stroke:url(#Degradado_sin_nombre_4546);}.cls-91{stroke-width:0.99px;stroke-dasharray:3.66 1.34;stroke:url(#Degradado_sin_nombre_4545);}.cls-92{stroke-width:0.92px;stroke-dasharray:3.78 1.22;stroke:url(#Degradado_sin_nombre_4544);}.cls-93{stroke-width:0.85px;stroke-dasharray:3.9 1.1;stroke:url(#Degradado_sin_nombre_4543);}.cls-94{stroke-width:0.79px;stroke-dasharray:4.02 0.98;stroke:url(#Degradado_sin_nombre_4542);}.cls-95{stroke-width:0.72px;stroke-dasharray:4.15 0.85;stroke:url(#Degradado_sin_nombre_4541);}.cls-96{stroke-width:0.65px;stroke-dasharray:4.27 0.73;stroke:url(#Degradado_sin_nombre_4540);}.cls-97{stroke-width:0.59px;stroke-dasharray:4.39 0.61;stroke:url(#Degradado_sin_nombre_4539);}.cls-98{stroke-width:0.52px;stroke-dasharray:4.51 0.49;stroke:url(#Degradado_sin_nombre_4538);}.cls-99{stroke-width:0.45px;stroke-dasharray:4.63 0.37;stroke:url(#Degradado_sin_nombre_4537);}.cls-100{stroke-width:0.38px;stroke-dasharray:4.76 0.24;stroke:url(#Degradado_sin_nombre_4536);}.cls-101{fill:url(#Degradado_sin_nombre_4584-15);}</style><clipPath id="clip-path"><rect class="cls-1" width="750" height="500"/></clipPath><radialGradient id="Безымянный_градиент_22" cx="-177.64" cy="-94.94" r="1555.16" gradientUnits="userSpaceOnUse"><stop offset="0" stop-color="#000040"/><stop offset="0.39" stop-color="#0100ff"/><stop offset="1" stop-color="#6766ff"/></radialGradient><linearGradient id="Безымянный_градиент_27" x1="299.85" y1="348.03" x2="923.82" y2="6.05" gradientUnits="userSpaceOnUse"><stop offset="0" stop-color="#3433ff"/><stop offset="0.09" stop-color="#3231ff" stop-opacity="0.97"/><stop offset="0.22" stop-color="#2e2dff" stop-opacity="0.87"/><stop offset="0.39" stop-color="#2625ff" stop-opacity="0.72"/><stop offset="0.59" stop-color="#1b1aff" stop-opacity="0.51"/><stop offset="0.81" stop-color="#0e0dff" stop-opacity="0.25"/><stop offset="1" stop-color="#0100ff" stop-opacity="0"/></linearGradient><linearGradient id="Безымянный_градиент_50" x1="69.68" y1="-68.91" x2="407.68" y2="529.09" gradientUnits="userSpaceOnUse"><stop offset="0" stop-color="#3433ff"/><stop offset="1" stop-color="#0100ff" stop-opacity="0"/></linearGradient><linearGradient id="Безымянный_градиент_57" x1="339.39" y1="1383.93" x2="-227.61" y2="866.43" gradientTransform="matrix(0.2, 0.98, -0.98, 0.2, 1247.2, 123.53)" gradientUnits="userSpaceOnUse"><stop offset="0.29" stop-color="#0100ff" stop-opacity="0"/><stop offset="0.93" stop-color="#6766ff" stop-opacity="0.8"/><stop offset="1" stop-color="#6766ff"/></linearGradient><linearGradient id="Безымянный_градиент_54" x1="898.26" y1="664.92" x2="331.28" y2="147.45" gradientUnits="userSpaceOnUse"><stop offset="0.29" stop-color="#0100ff" stop-opacity="0"/><stop offset="0.93" stop-color="#3433ff" stop-opacity="0.8"/><stop offset="1" stop-color="#6766ff"/></linearGradient><radialGradient id="Degradado_sin_nombre_4584" cx="254.42" cy="268.14" r="1.46" gradientUnits="userSpaceOnUse"><stop offset="0.36" stop-color="#0282fc"/><stop offset="1" stop-color="#0324c9" stop-opacity="0"/></radialGradient><radialGradient id="Degradado_sin_nombre_4584-2" cx="624.9" cy="283.14" r="1.46" xlink:href="#Degradado_sin_nombre_4584"/><radialGradient id="Degradado_sin_nombre_4584-3" cx="734.4" cy="374.64" r="1.46" xlink:href="#Degradado_sin_nombre_4584"/><radialGradient id="Degradado_sin_nombre_4584-4" cx="524.41" cy="64.15" r="1.46" xlink:href="#Degradado_sin_nombre_4584"/><radialGradient id="Degradado_sin_nombre_4584-5" cx="135.93" cy="26.66" r="1.46" xlink:href="#Degradado_sin_nombre_4584"/><radialGradient id="Degradado_sin_nombre_4584-6" cx="123.93" cy="284.64" r="1.46" xlink:href="#Degradado_sin_nombre_4584"/><radialGradient id="Degradado_sin_nombre_4584-7" cx="386.36" cy="98.39" r="1.46" xlink:href="#Degradado_sin_nombre_4584"/><radialGradient id="Degradado_sin_nombre_4584-8" cx="501.69" cy="240.39" r="1.46" xlink:href="#Degradado_sin_nombre_4584"/><radialGradient id="Degradado_sin_nombre_4584-9" cx="482.36" cy="393.06" r="1.46" xlink:href="#Degradado_sin_nombre_4584"/><radialGradient id="Degradado_sin_nombre_4584-10" cx="435.03" cy="397.06" r="1.46" xlink:href="#Degradado_sin_nombre_4584"/><radialGradient id="Degradado_sin_nombre_4584-11" cx="720.9" cy="481.13" r="1.46" xlink:href="#Degradado_sin_nombre_4584"/><radialGradient id="Degradado_sin_nombre_4584-12" cx="266.42" cy="20.66" r="1.46" xlink:href="#Degradado_sin_nombre_4584"/><radialGradient id="Degradado_sin_nombre_4584-13" cx="177.92" cy="157.15" r="1.46" xlink:href="#Degradado_sin_nombre_4584"/><radialGradient id="Degradado_sin_nombre_4584-14" cx="150.93" cy="13.16" r="1.46" xlink:href="#Degradado_sin_nombre_4584"/><clipPath id="clip-path-2"><rect class="cls-1" x="-599" width="500" height="500"/></clipPath><radialGradient id="Degradado_sin_nombre_45" cx="-901.64" cy="-94.94" r="1555.17" gradientUnits="userSpaceOnUse"><stop offset="0" stop-color="#270052"/><stop offset="0.39" stop-color="#0324c9"/><stop offset="1" stop-color="#0282fc"/></radialGradient><linearGradient id="Degradado_sin_nombre_16" x1="-424.15" y1="348.03" x2="199.82" y2="6.05" gradientUnits="userSpaceOnUse"><stop offset="0" stop-color="#0282fc"/><stop offset="0.09" stop-color="#027ffa" stop-opacity="0.97"/><stop offset="0.22" stop-color="#0276f5" stop-opacity="0.87"/><stop offset="0.4" stop-color="#0268ee" stop-opacity="0.72"/><stop offset="0.6" stop-color="#0254e3" stop-opacity="0.51"/><stop offset="0.82" stop-color="#033ad5" stop-opacity="0.24"/><stop offset="1" stop-color="#0324c9" stop-opacity="0"/></linearGradient><linearGradient id="Degradado_sin_nombre_36" x1="174.26" y1="664.92" x2="-392.72" y2="147.45" gradientUnits="userSpaceOnUse"><stop offset="0.29" stop-color="#0324c9" stop-opacity="0"/><stop offset="0.93" stop-color="#0267ee" stop-opacity="0.8"/><stop offset="1" stop-color="#0282fc"/></linearGradient><linearGradient id="Degradado_sin_nombre_3155" x1="-196.42" y1="211.9" x2="63.99" y2="211.9" gradientUnits="userSpaceOnUse"><stop offset="0.17" stop-color="#0282fc"/><stop offset="1" stop-color="#0324c9" stop-opacity="0"/></linearGradient><linearGradient id="Degradado_sin_nombre_3155-2" x1="-189.27" y1="212.03" x2="68.35" y2="212.03" xlink:href="#Degradado_sin_nombre_3155"/><linearGradient id="Degradado_sin_nombre_3155-3" x1="-182.14" y1="211.97" x2="72.72" y2="211.97" xlink:href="#Degradado_sin_nombre_3155"/><linearGradient id="Degradado_sin_nombre_3155-4" x1="-175.03" y1="211.91" x2="77.1" y2="211.91" xlink:href="#Degradado_sin_nombre_3155"/><linearGradient id="Degradado_sin_nombre_3155-5" x1="-167.93" y1="211.85" x2="81.48" y2="211.85" xlink:href="#Degradado_sin_nombre_3155"/><linearGradient id="Degradado_sin_nombre_3155-6" x1="-160.86" y1="211.79" x2="85.88" y2="211.79" xlink:href="#Degradado_sin_nombre_3155"/><linearGradient id="Degradado_sin_nombre_3155-7" x1="-153.81" y1="211.72" x2="90.29" y2="211.72" xlink:href="#Degradado_sin_nombre_3155"/><linearGradient id="Degradado_sin_nombre_3155-8" x1="-146.77" y1="211.66" x2="94.7" y2="211.66" xlink:href="#Degradado_sin_nombre_3155"/><linearGradient id="Degradado_sin_nombre_3155-9" x1="-139.75" y1="211.59" x2="99.12" y2="211.59" xlink:href="#Degradado_sin_nombre_3155"/><linearGradient id="Degradado_sin_nombre_3155-10" x1="-132.75" y1="211.53" x2="103.55" y2="211.53" xlink:href="#Degradado_sin_nombre_3155"/><linearGradient id="Degradado_sin_nombre_3155-11" x1="-125.76" y1="211.46" x2="107.99" y2="211.46" xlink:href="#Degradado_sin_nombre_3155"/><linearGradient id="Degradado_sin_nombre_3155-12" x1="-118.79" y1="211.39" x2="112.43" y2="211.39" xlink:href="#Degradado_sin_nombre_3155"/><linearGradient id="Degradado_sin_nombre_3155-13" x1="-111.83" y1="211.32" x2="116.89" y2="211.32" xlink:href="#Degradado_sin_nombre_3155"/><linearGradient id="Degradado_sin_nombre_3155-14" x1="-104.89" y1="211.24" x2="121.34" y2="211.24" xlink:href="#Degradado_sin_nombre_3155"/><linearGradient id="Degradado_sin_nombre_3155-15" x1="-97.97" y1="211.17" x2="125.76" y2="211.17" xlink:href="#Degradado_sin_nombre_3155"/><linearGradient id="Degradado_sin_nombre_3155-16" x1="-91.05" y1="211.09" x2="130.24" y2="211.09" xlink:href="#Degradado_sin_nombre_3155"/><linearGradient id="Degradado_sin_nombre_3155-17" x1="-84.15" y1="210.21" x2="134.76" y2="210.21" xlink:href="#Degradado_sin_nombre_3155"/><linearGradient id="Degradado_sin_nombre_3155-18" x1="-77.26" y1="210.16" x2="139.24" y2="210.16" xlink:href="#Degradado_sin_nombre_3155"/><linearGradient id="Degradado_sin_nombre_3155-19" x1="-70.39" y1="210.11" x2="143.72" y2="210.11" xlink:href="#Degradado_sin_nombre_3155"/><linearGradient id="Degradado_sin_nombre_3155-20" x1="-63.52" y1="210.06" x2="148.22" y2="210.06" xlink:href="#Degradado_sin_nombre_3155"/><linearGradient id="Degradado_sin_nombre_3155-21" x1="-56.67" y1="210" x2="152.71" y2="210" xlink:href="#Degradado_sin_nombre_3155"/><linearGradient id="Degradado_sin_nombre_3155-22" x1="-49.83" y1="209.95" x2="157.21" y2="209.95" xlink:href="#Degradado_sin_nombre_3155"/><linearGradient id="Degradado_sin_nombre_3155-23" x1="-43" y1="209.9" x2="161.72" y2="209.9" xlink:href="#Degradado_sin_nombre_3155"/><linearGradient id="Degradado_sin_nombre_3155-24" x1="-36.18" y1="209.84" x2="166.23" y2="209.84" xlink:href="#Degradado_sin_nombre_3155"/><linearGradient id="Degradado_sin_nombre_3155-25" x1="-29.36" y1="209.79" x2="170.74" y2="209.79" xlink:href="#Degradado_sin_nombre_3155"/><linearGradient id="Degradado_sin_nombre_3155-26" x1="-22.56" y1="209.73" x2="175.26" y2="209.73" xlink:href="#Degradado_sin_nombre_3155"/><linearGradient id="Degradado_sin_nombre_3155-27" x1="-15.77" y1="209.67" x2="179.78" y2="209.67" xlink:href="#Degradado_sin_nombre_3155"/><linearGradient id="Degradado_sin_nombre_3155-28" x1="-8.99" y1="209.62" x2="184.31" y2="209.62" xlink:href="#Degradado_sin_nombre_3155"/><linearGradient id="Degradado_sin_nombre_3155-29" x1="-2.21" y1="209.56" x2="188.84" y2="209.56" xlink:href="#Degradado_sin_nombre_3155"/><linearGradient id="Degradado_sin_nombre_3155-30" x1="4.55" y1="209.5" x2="193.37" y2="209.5" xlink:href="#Degradado_sin_nombre_3155"/><linearGradient id="Degradado_sin_nombre_3155-31" x1="11.31" y1="209.45" x2="197.9" y2="209.45" xlink:href="#Degradado_sin_nombre_3155"/><linearGradient id="Degradado_sin_nombre_3155-32" x1="18.06" y1="209.39" x2="202.44" y2="209.39" xlink:href="#Degradado_sin_nombre_3155"/><linearGradient id="Degradado_sin_nombre_3218" x1="651.74" y1="-136.39" x2="845.75" y2="-136.39" gradientTransform="matrix(-0.06, -1, 1, -0.06, -58.44, 1177.23)" xlink:href="#Degradado_sin_nombre_4584"/><linearGradient id="Degradado_sin_nombre_4574" x1="643.99" y1="-136.95" x2="839.06" y2="-136.95" gradientTransform="translate(-61.58 1173.87) rotate(-93.01)" gradientUnits="userSpaceOnUse"><stop offset="0.17" stop-color="#0282fc"/><stop offset="0.36" stop-color="#0281fc" stop-opacity="0.98"/><stop offset="1" stop-color="#0324c9" stop-opacity="0"/></linearGradient><linearGradient id="Degradado_sin_nombre_4573" x1="634.6" y1="-137.37" x2="830.57" y2="-137.37" gradientTransform="translate(-64.77 1168.86) rotate(-92.68)" gradientUnits="userSpaceOnUse"><stop offset="0.17" stop-color="#0282fc"/><stop offset="0.36" stop-color="#0281fb" stop-opacity="0.95"/><stop offset="1" stop-color="#0324c9" stop-opacity="0"/></linearGradient><linearGradient id="Degradado_sin_nombre_4572" x1="626.9" y1="-137.78" x2="823.77" y2="-137.78" gradientTransform="matrix(-0.04, -1, 1, -0.04, -67.91, 1165.51)" gradientUnits="userSpaceOnUse"><stop offset="0.17" stop-color="#0282fc"/><stop offset="0.36" stop-color="#0280fb" stop-opacity="0.93"/><stop offset="1" stop-color="#0324c9" stop-opacity="0"/></linearGradient><linearGradient id="Degradado_sin_nombre_4571" x1="619.23" y1="-138.11" x2="816.92" y2="-138.11" gradientTransform="translate(-71.05 1162.15) rotate(-92.01)" gradientUnits="userSpaceOnUse"><stop offset="0.17" stop-color="#0282fc"/><stop offset="0.36" stop-color="#0280fb" stop-opacity="0.9"/><stop offset="1" stop-color="#0324c9" stop-opacity="0"/></linearGradient><linearGradient id="Degradado_sin_nombre_4570" x1="610.69" y1="-139.18" x2="809.11" y2="-139.18" gradientTransform="translate(-73.39 1157.93) rotate(-91.67)" gradientUnits="userSpaceOnUse"><stop offset="0.17" stop-color="#0282fc"/><stop offset="0.36" stop-color="#027ffb" stop-opacity="0.88"/><stop offset="1" stop-color="#0324c9" stop-opacity="0"/></linearGradient><linearGradient id="Degradado_sin_nombre_4569" x1="603.07" y1="-139.36" x2="802.16" y2="-139.36" gradientTransform="matrix(-0.02, -1, 1, -0.02, -76.53, 1154.57)" gradientUnits="userSpaceOnUse"><stop offset="0.17" stop-color="#0282fc"/><stop offset="0.36" stop-color="#027ffa" stop-opacity="0.85"/><stop offset="1" stop-color="#0324c9" stop-opacity="0"/></linearGradient><linearGradient id="Degradado_sin_nombre_4568" x1="594.72" y1="-138.57" x2="794.6" y2="-138.57" gradientTransform="translate(-80.52 1150.42) rotate(-91)" gradientUnits="userSpaceOnUse"><stop offset="0.17" stop-color="#0282fc"/><stop offset="0.36" stop-color="#027efa" stop-opacity="0.83"/><stop offset="1" stop-color="#0324c9" stop-opacity="0"/></linearGradient><linearGradient id="Degradado_sin_nombre_4567" x1="587.18" y1="-138.6" x2="787.59" y2="-138.6" gradientTransform="translate(-83.66 1147.06) rotate(-90.66)" gradientUnits="userSpaceOnUse"><stop offset="0.17" stop-color="#0282fc"/><stop offset="0.36" stop-color="#027efa" stop-opacity="0.8"/><stop offset="1" stop-color="#0324c9" stop-opacity="0"/></linearGradient><linearGradient id="Degradado_sin_nombre_4566" x1="578.76" y1="-139.35" x2="779.61" y2="-139.35" gradientTransform="translate(-86 1142.85) rotate(-90.32)" gradientUnits="userSpaceOnUse"><stop offset="0.17" stop-color="#0282fc"/><stop offset="0.36" stop-color="#027df9" stop-opacity="0.78"/><stop offset="1" stop-color="#0324c9" stop-opacity="0"/></linearGradient><linearGradient id="Degradado_sin_nombre_4565" x1="571.28" y1="-139.23" x2="772.51" y2="-139.23" gradientTransform="translate(-89.14 1139.49) rotate(-89.98) scale(0.99)" gradientUnits="userSpaceOnUse"><stop offset="0.17" stop-color="#0282fc"/><stop offset="0.36" stop-color="#027df9" stop-opacity="0.76"/><stop offset="1" stop-color="#0324c9" stop-opacity="0"/></linearGradient><linearGradient id="Degradado_sin_nombre_4564" x1="563.11" y1="-138.11" x2="764.56" y2="-138.11" gradientTransform="translate(-93.13 1135.34) rotate(-89.64) scale(0.99)" gradientUnits="userSpaceOnUse"><stop offset="0.17" stop-color="#0282fc"/><stop offset="0.36" stop-color="#027cf9" stop-opacity="0.73"/><stop offset="1" stop-color="#0324c9" stop-opacity="0"/></linearGradient><linearGradient id="Degradado_sin_nombre_4563" x1="554.79" y1="-138.61" x2="756.44" y2="-138.61" gradientTransform="translate(-95.47 1131.12) rotate(-89.3) scale(0.99)" gradientUnits="userSpaceOnUse"><stop offset="0.17" stop-color="#0282fc"/><stop offset="0.36" stop-color="#027cf8" stop-opacity="0.71"/><stop offset="1" stop-color="#0324c9" stop-opacity="0"/></linearGradient><linearGradient id="Degradado_sin_nombre_4562" x1="547.44" y1="-138.26" x2="749.21" y2="-138.26" gradientTransform="matrix(0.02, -0.99, 0.99, 0.02, -98.61, 1127.76)" gradientUnits="userSpaceOnUse"><stop offset="0.17" stop-color="#0282fc"/><stop offset="0.36" stop-color="#027bf8" stop-opacity="0.68"/><stop offset="1" stop-color="#0324c9" stop-opacity="0"/></linearGradient><linearGradient id="Degradado_sin_nombre_4561" x1="540.14" y1="-137.84" x2="741.95" y2="-137.84" gradientTransform="translate(-101.74 1124.4) rotate(-88.62) scale(0.99)" gradientUnits="userSpaceOnUse"><stop offset="0.17" stop-color="#0282fc"/><stop offset="0.36" stop-color="#027bf8" stop-opacity="0.66"/><stop offset="1" stop-color="#0324c9" stop-opacity="0"/></linearGradient><linearGradient id="Degradado_sin_nombre_4560" x1="531.22" y1="-137.16" x2="732.91" y2="-137.16" gradientTransform="matrix(0.03, -0.99, 0.99, 0.03, -104.94, 1119.4)" gradientUnits="userSpaceOnUse"><stop offset="0.17" stop-color="#0282fc"/><stop offset="0.36" stop-color="#027af8" stop-opacity="0.63"/><stop offset="1" stop-color="#0324c9" stop-opacity="0"/></linearGradient><linearGradient id="Degradado_sin_nombre_4559" x1="524.01" y1="-136.58" x2="725.58" y2="-136.58" gradientTransform="translate(-108.08 1116.04) rotate(-87.95) scale(0.99)" gradientUnits="userSpaceOnUse"><stop offset="0.17" stop-color="#0282fc"/><stop offset="0.36" stop-color="#027af7" stop-opacity="0.61"/><stop offset="1" stop-color="#0324c9" stop-opacity="0"/></linearGradient><linearGradient id="Degradado_sin_nombre_4558" x1="516.85" y1="-135.92" x2="718.21" y2="-135.92" gradientTransform="translate(-111.21 1112.68) rotate(-87.6) scale(0.99)" gradientUnits="userSpaceOnUse"><stop offset="0.17" stop-color="#0282fc"/><stop offset="0.36" stop-color="#0279f7" stop-opacity="0.59"/><stop offset="1" stop-color="#0324c9" stop-opacity="0"/></linearGradient><linearGradient id="Degradado_sin_nombre_4557" x1="508.8" y1="-135.93" x2="709.84" y2="-135.93" gradientTransform="matrix(0.05, -0.99, 0.99, 0.05, -113.56, 1108.46)" gradientUnits="userSpaceOnUse"><stop offset="0.17" stop-color="#0282fc"/><stop offset="0.36" stop-color="#0279f7" stop-opacity="0.56"/><stop offset="1" stop-color="#0324c9" stop-opacity="0"/></linearGradient><linearGradient id="Degradado_sin_nombre_4556" x1="501.03" y1="-134.17" x2="701.65" y2="-134.17" gradientTransform="matrix(0.05, -0.99, 0.99, 0.05, -117.55, 1104.31)" gradientUnits="userSpaceOnUse"><stop offset="0.17" stop-color="#0282fc"/><stop offset="0.36" stop-color="#0278f6" stop-opacity="0.54"/><stop offset="1" stop-color="#0324c9" stop-opacity="0"/></linearGradient><linearGradient id="Degradado_sin_nombre_4555" x1="494.03" y1="-133.28" x2="694.19" y2="-133.28" gradientTransform="matrix(0.06, -0.99, 0.99, 0.06, -120.68, 1100.95)" gradientUnits="userSpaceOnUse"><stop offset="0.17" stop-color="#0282fc"/><stop offset="0.36" stop-color="#0278f6" stop-opacity="0.51"/><stop offset="1" stop-color="#0324c9" stop-opacity="0"/></linearGradient><linearGradient id="Degradado_sin_nombre_4554" x1="486.13" y1="-133.05" x2="685.72" y2="-133.05" gradientTransform="translate(-123.03 1096.74) rotate(-86.25) scale(0.99)" gradientUnits="userSpaceOnUse"><stop offset="0.17" stop-color="#0282fc"/><stop offset="0.36" stop-color="#0277f6" stop-opacity="0.49"/><stop offset="1" stop-color="#0324c9" stop-opacity="0"/></linearGradient><linearGradient id="Degradado_sin_nombre_4553" x1="479.24" y1="-132.01" x2="678.2" y2="-132.01" gradientTransform="translate(-126.16 1093.38) rotate(-85.9) scale(0.99)" gradientUnits="userSpaceOnUse"><stop offset="0.17" stop-color="#0282fc"/><stop offset="0.36" stop-color="#0277f6" stop-opacity="0.46"/><stop offset="1" stop-color="#0324c9" stop-opacity="0"/></linearGradient><linearGradient id="Degradado_sin_nombre_4552" x1="472.41" y1="-130.9" x2="670.66" y2="-130.9" gradientTransform="matrix(0.08, -0.99, 0.99, 0.08, -129.3, 1090.02)" gradientUnits="userSpaceOnUse"><stop offset="0.17" stop-color="#0282fc"/><stop offset="0.36" stop-color="#0276f5" stop-opacity="0.44"/><stop offset="1" stop-color="#0324c9" stop-opacity="0"/></linearGradient><linearGradient id="Degradado_sin_nombre_4551" x1="464" y1="-129.44" x2="661.39" y2="-129.44" gradientTransform="translate(-132.5 1085.01) rotate(-85.23) scale(0.99)" gradientUnits="userSpaceOnUse"><stop offset="0.17" stop-color="#0282fc"/><stop offset="0.36" stop-color="#0276f5" stop-opacity="0.41"/><stop offset="1" stop-color="#0324c9" stop-opacity="0"/></linearGradient><linearGradient id="Degradado_sin_nombre_4550" x1="457.29" y1="-128.18" x2="653.8" y2="-128.18" gradientTransform="translate(-135.63 1081.65) rotate(-84.89) scale(0.99)" gradientUnits="userSpaceOnUse"><stop offset="0.17" stop-color="#0282fc"/><stop offset="0.36" stop-color="#0275f5" stop-opacity="0.39"/><stop offset="1" stop-color="#0324c9" stop-opacity="0"/></linearGradient><linearGradient id="Degradado_sin_nombre_4549" x1="450.65" y1="-126.84" x2="646.21" y2="-126.84" gradientTransform="translate(-138.77 1078.29) rotate(-84.55) scale(0.99)" gradientUnits="userSpaceOnUse"><stop offset="0.17" stop-color="#0282fc"/><stop offset="0.36" stop-color="#0275f4" stop-opacity="0.37"/><stop offset="1" stop-color="#0324c9" stop-opacity="0"/></linearGradient><linearGradient id="Degradado_sin_nombre_4548" x1="443.1" y1="-126.12" x2="637.59" y2="-126.12" gradientTransform="translate(-141.11 1074.08) rotate(-84.21) scale(0.99)" gradientUnits="userSpaceOnUse"><stop offset="0.17" stop-color="#0282fc"/><stop offset="0.36" stop-color="#0274f4" stop-opacity="0.34"/><stop offset="1" stop-color="#0324c9" stop-opacity="0"/></linearGradient><linearGradient id="Degradado_sin_nombre_4547" x1="435.92" y1="-123.64" x2="629.26" y2="-123.64" gradientTransform="matrix(0.11, -0.99, 0.99, 0.11, -145.1, 1069.93)" gradientUnits="userSpaceOnUse"><stop offset="0.17" stop-color="#0282fc"/><stop offset="0.36" stop-color="#0274f4" stop-opacity="0.32"/><stop offset="1" stop-color="#0324c9" stop-opacity="0"/></linearGradient><linearGradient id="Degradado_sin_nombre_4546" x1="429.48" y1="-122.08" x2="621.62" y2="-122.08" gradientTransform="translate(-148.24 1066.57) rotate(-83.53) scale(0.99)" gradientUnits="userSpaceOnUse"><stop offset="0.17" stop-color="#0282fc"/><stop offset="0.36" stop-color="#0273f4" stop-opacity="0.29"/><stop offset="1" stop-color="#0324c9" stop-opacity="0"/></linearGradient><linearGradient id="Degradado_sin_nombre_4545" x1="423.11" y1="-120.45" x2="613.97" y2="-120.45" gradientTransform="matrix(0.12, -0.99, 0.99, 0.12, -151.38, 1063.21)" gradientUnits="userSpaceOnUse"><stop offset="0.17" stop-color="#0282fc"/><stop offset="0.36" stop-color="#0273f3" stop-opacity="0.27"/><stop offset="1" stop-color="#0324c9" stop-opacity="0"/></linearGradient><linearGradient id="Degradado_sin_nombre_4544" x1="415.82" y1="-119.41" x2="605.31" y2="-119.41" gradientTransform="matrix(0.12, -0.99, 0.99, 0.12, -153.72, 1059)" gradientUnits="userSpaceOnUse"><stop offset="0.17" stop-color="#0282fc"/><stop offset="0.36" stop-color="#0272f3" stop-opacity="0.24"/><stop offset="1" stop-color="#0324c9" stop-opacity="0"/></linearGradient><linearGradient id="Degradado_sin_nombre_4543" x1="408.95" y1="-116.64" x2="596.97" y2="-116.64" gradientTransform="translate(-157.71 1054.84) rotate(-82.52) scale(0.99)" gradientUnits="userSpaceOnUse"><stop offset="0.17" stop-color="#0282fc"/><stop offset="0.36" stop-color="#0272f3" stop-opacity="0.22"/><stop offset="1" stop-color="#0324c9" stop-opacity="0"/></linearGradient><linearGradient id="Degradado_sin_nombre_4542" x1="402.79" y1="-114.79" x2="589.31" y2="-114.79" gradientTransform="translate(-160.85 1051.48) rotate(-82.18)" gradientUnits="userSpaceOnUse"><stop offset="0.17" stop-color="#0282fc"/><stop offset="0.36" stop-color="#0271f2" stop-opacity="0.2"/><stop offset="1" stop-color="#0324c9" stop-opacity="0"/></linearGradient><linearGradient id="Degradado_sin_nombre_4541" x1="395.71" y1="-113.52" x2="580.63" y2="-113.52" gradientTransform="matrix(0.14, -0.99, 0.99, 0.14, -163.19, 1047.27)" gradientUnits="userSpaceOnUse"><stop offset="0.17" stop-color="#0282fc"/><stop offset="0.36" stop-color="#0271f2" stop-opacity="0.17"/><stop offset="1" stop-color="#0324c9" stop-opacity="0"/></linearGradient><linearGradient id="Degradado_sin_nombre_4540" x1="389.7" y1="-111.52" x2="572.97" y2="-111.52" gradientTransform="matrix(0.15, -0.99, 0.99, 0.15, -166.33, 1043.91)" gradientUnits="userSpaceOnUse"><stop offset="0.17" stop-color="#0282fc"/><stop offset="0.36" stop-color="#0270f2" stop-opacity="0.15"/><stop offset="1" stop-color="#0324c9" stop-opacity="0"/></linearGradient><linearGradient id="Degradado_sin_nombre_4539" x1="383.76" y1="-109.46" x2="565.31" y2="-109.46" gradientTransform="matrix(0.15, -0.98, 0.98, 0.15, -169.46, 1040.55)" gradientUnits="userSpaceOnUse"><stop offset="0.17" stop-color="#0282fc"/><stop offset="0.36" stop-color="#0270f1" stop-opacity="0.12"/><stop offset="1" stop-color="#0324c9" stop-opacity="0"/></linearGradient><linearGradient id="Degradado_sin_nombre_4538" x1="376.14" y1="-106.95" x2="555.99" y2="-106.95" gradientTransform="matrix(0.16, -0.98, 0.98, 0.16, -172.66, 1035.54)" gradientUnits="userSpaceOnUse"><stop offset="0.17" stop-color="#0282fc"/><stop offset="0.36" stop-color="#026ff1" stop-opacity="0.1"/><stop offset="1" stop-color="#0324c9" stop-opacity="0"/></linearGradient><linearGradient id="Degradado_sin_nombre_4537" x1="367.19" y1="-104.75" x2="548.36" y2="-104.75" gradientTransform="translate(-175.8 1032.19) rotate(-80.49)" gradientUnits="userSpaceOnUse"><stop offset="0.17" stop-color="#0282fc"/><stop offset="0.36" stop-color="#026ff1" stop-opacity="0.07"/><stop offset="1" stop-color="#0324c9" stop-opacity="0"/></linearGradient><linearGradient id="Degradado_sin_nombre_4536" x1="357.85" y1="-102.49" x2="540.66" y2="-102.49" gradientTransform="translate(-178.93 1028.83) rotate(-80.15)" gradientUnits="userSpaceOnUse"><stop offset="0.17" stop-color="#0282fc"/><stop offset="0.36" stop-color="#026ef1" stop-opacity="0.05"/><stop offset="1" stop-color="#0324c9" stop-opacity="0"/></linearGradient><radialGradient id="Degradado_sin_nombre_4584-15" cx="10.4" cy="374.64" r="1.46" xlink:href="#Degradado_sin_nombre_4584"/></defs><g class="cls-2"><g id="BACKGROUND_2" data-name="BACKGROUND 2"><g class="cls-3"><rect class="cls-4" width="750" height="500"/><path class="cls-5" d="M939.13,70.38C935,34.85,920.35.8,895.76-25.42A146.25,146.25,0,0,0,800.54-71a133.75,133.75,0,0,0-54.07,7.25c-18.62,6.48-36.19,16-55.5,20.44-14.77,3.41-30.46,2.19-43.73-5.58-5.72-3.35-10.8-7.93-13.85-13.88-3.84-7.48-2.54-15.27-2.29-23.35.29-9.07-2.16-17.35-8.91-23.66-6.54-6.12-15.09-9.86-22.94-14-18.36-9.64-36.53-20.26-55.63-28.4a101,101,0,0,0-28.5-8c-10.24-1.13-20.48.51-30.39,3.07-19.66,5.08-39.48,11-58.26,18.81C408.9-131,392.24-121.76,378.06-109A113.82,113.82,0,0,0,360.39-88.8,90.43,90.43,0,0,0,354-78a113.47,113.47,0,0,1-7.79,12.59c-10.35,15.56-17.12,34-17.18,52.82-.05,17.34,5.83,33.79,12.69,49.47s15.07,30.81,19.63,47.34,3.93,33.09-3.16,48.73c-14.77,32.62-45.23,54.79-62.43,86-17.35,31.47-22.67,70.59,2.64,99.46s65.67,34.41,101.77,34.19c38.53-.22,81.41-6.11,116.13,14.77,30.76,18.49,44.75,54.54,68.18,80.3,44.22,48.66,115.34,70.43,179.39,56.68,33.79-7.26,67.87-24.4,81.53-58,14.28-35.12,6.35-75.26,4.91-111.89-.78-19.85-.61-40,3.53-59.5,4-19,12.1-35.94,23.31-51.71,10.72-15.07,23.15-28.84,33.87-43.9a153.23,153.23,0,0,0,24.36-51.79A164.79,164.79,0,0,0,939.13,70.38Z"/><path class="cls-6" d="M535-63.66c-5.63-38.25-21.69-74.16-43.16-106.52-14.77-36.6-34.75-70.7-63.14-97.8C384-310.62,314.49-331.8,258.43-305.87c-49.7,23-84.18,78.91-138.69,84.14C87-218.58,55.93-235.2,23.73-242-35.43-254.52-99.7-231.69-141-187.56S-201-80.18-194.65-20s36.33,116.68,79.39,159.12C-92,162-64.54,181.8-49.41,210.66-29,249.58-35.3,297.14-48.74,339S-82.27,420.91-88.61,464.4c-3.54,24.32-.72,53.1,19.44,67.16,10.85,7.57,24.76,9.27,38,8.84C42.65,538,107.14,467.23,102.7,393.49,100.78,361.5,87.86,331,85,299.12c-6.48-71,44-143,113-161,34.11-8.94,70-5.79,105.26-4.56,68.73,2.4,144.74-5.89,192-55.85C530,40.86,542.36-13.55,535-63.66Z"/><path class="cls-7" d="M107.24,684.67A162.49,162.49,0,0,0,154,665c37-23.6,64.51-60.62,105.13-78.67a141.66,141.66,0,0,1,67-11.75c23.54,1.63,46.2,8.64,69.19,13.42,40,8.32,89.54,8.73,114.24-30a58.16,58.16,0,0,0,9.12-25.64c.37-3.88-.29-8.3-.29-11.51,0-2.43.38-4.87.4-7.31.18-27.82-11.73-54.81-35.23-70.58-20.28-13.6-45.59-17.85-69.58-18.1a299.41,299.41,0,0,0-54.68,5c-22,3.86-44.2,3.8-65.47-3.67-18.33-6.44-35.22-18.48-45.56-35.15-11.91-19.19-12.75-41.55-9.8-63.37,5.59-41.33,25.13-88.85,1.47-128.22-10-16.61-26.63-27.61-45.35-32-20.75-4.89-40.19-1.18-60.61,3.34-10.55,2.33-21.36,4.44-32.19,3a47.42,47.42,0,0,1-22.93-10C65.28,153.15,56.9,136.3,51.69,120.24,45.65,101.6,45,80.6,29.26,66.85,16,55.31-2,51.3-19.1,50c-20.47-1.55-43.74-1.39-61.36,10.49-15,10.11-24.44,26.77-28.32,44.2-10.11,45.36,16.51,86,36.51,124.42,11.07,21.26,21.39,44.36,21.68,68.76.24,20.57-6.78,40-15,58.57-8.69,19.52-18.59,38.44-25.27,58.79a267.79,267.79,0,0,0-12.73,65.43c-2.91,43.23,4.26,88.57,25.34,126.81C-60,640.58-31.42,665.76,4,679A176.13,176.13,0,0,0,107.24,684.67Z"/><path class="cls-8" d="M882.19,509.81a162.4,162.4,0,0,0-10-49.73C856.4,419.15,825.59,384.81,816,341.41a141.52,141.52,0,0,1,1.8-68c6.28-22.75,17.65-43.56,26.91-65.15,16.1-37.55,26.36-86-6.66-117.92a58.24,58.24,0,0,0-23.31-14c-3.73-1.13-8.2-1.36-11.34-2-2.38-.48-4.7-1.35-7.08-1.85-27.23-5.7-56,.61-76.17,20.5-17.37,17.16-26.56,41.13-31.58,64.59-3.83,17.91-5.5,36.29-6,54.58-.58,22.3-5.06,44.07-16.61,63.43-10,16.68-25.12,30.85-43.51,37.67-21.17,7.85-43.25,4.23-64.05-3C519,296.56,476.31,268,433,283.32c-18.25,6.48-32.34,20.6-40.38,38.07-8.92,19.37-9.16,39.16-8.79,60.07.19,10.81.11,21.81-3.46,32.14A47.49,47.49,0,0,1,366,434.09c-13.11,11.17-31.29,16-48.06,17.94-19.47,2.22-40.18-1.31-56.78,11.38-13.94,10.65-21.47,27.57-26.13,44C229.48,527.2,225,550,233.15,569.67c6.93,16.71,21.38,29.27,37.69,36.54,42.45,18.93,87.54.92,129.2-11.05,23-6.61,47.72-12.14,71.69-7.57,20.2,3.85,37.89,14.6,54.42,26.38,17.4,12.39,34,25.85,52.59,36.45a268.08,268.08,0,0,0,61.59,25.48c41.78,11.44,87.65,13.43,129.31.37,36.09-11.31,66.45-34.33,86.47-66.45A176.14,176.14,0,0,0,882.19,509.81Z"/><g class="cls-9"><path class="cls-10" d="M254.42,269.63a1.49,1.49,0,0,0,0-3,1.49,1.49,0,0,0,0,3Z"/><path class="cls-11" d="M624.9,284.63a1.49,1.49,0,0,0,0-3,1.49,1.49,0,0,0,0,3Z"/><path class="cls-12" d="M734.4,376.13a1.49,1.49,0,0,0,0-3,1.49,1.49,0,0,0,0,3Z"/><path class="cls-13" d="M524.41,65.64a1.49,1.49,0,0,0,0-3,1.49,1.49,0,0,0,0,3Z"/><path class="cls-14" d="M135.93,28.15a1.49,1.49,0,0,0,0-3,1.49,1.49,0,0,0,0,3Z"/><path class="cls-15" d="M123.93,286.13a1.49,1.49,0,0,0,0-3,1.49,1.49,0,0,0,0,3Z"/><path class="cls-16" d="M386.36,99.88a1.49,1.49,0,0,0,0-3,1.49,1.49,0,0,0,0,3Z"/><path class="cls-17" d="M501.69,241.88a1.49,1.49,0,0,0,0-3,1.49,1.49,0,0,0,0,3Z"/><path class="cls-18" d="M482.36,394.54a1.49,1.49,0,0,0,0-3,1.49,1.49,0,0,0,0,3Z"/><path class="cls-19" d="M435,398.54a1.49,1.49,0,0,0,0-3,1.49,1.49,0,0,0,0,3Z"/><path class="cls-20" d="M720.9,482.62a1.49,1.49,0,0,0,0-3,1.49,1.49,0,0,0,0,3Z"/><path class="cls-21" d="M266.42,22.15a1.49,1.49,0,0,0,0-3,1.49,1.49,0,0,0,0,3Z"/><path class="cls-22" d="M177.92,158.64a1.49,1.49,0,0,0,0-3,1.49,1.49,0,0,0,0,3Z"/><path class="cls-23" d="M150.93,14.65a1.49,1.49,0,0,0,0-3,1.49,1.49,0,0,0,0,3Z"/></g><g class="cls-9"><path class="cls-24" d="M173.43,92.29l-23.71-23.7,23.71-23.7,23.7,23.7Zm-20.17-23.7,20.17,20.17,20.16-20.17L173.43,48.42Z"/></g><g class="cls-9"><path class="cls-24" d="M699.61,457.41l-17.34-17.34,17.34-17.34L717,440.07Zm-14.75-17.34,14.75,14.76,14.75-14.76-14.75-14.75Z"/></g></g></g><g id="BACKGROUND_1" data-name="BACKGROUND 1"><g class="cls-25"><rect class="cls-26" x="-724" width="750" height="500"/><path class="cls-27" d="M215.13,70.38C211,34.85,196.35.8,171.76-25.42A146.25,146.25,0,0,0,76.55-71a133.78,133.78,0,0,0-54.08,7.25C3.85-57.23-13.72-47.71-33-43.27c-14.77,3.41-30.46,2.19-43.73-5.58-5.72-3.35-10.8-7.93-13.85-13.88-3.84-7.48-2.54-15.27-2.28-23.35.28-9.07-2.16-17.35-8.91-23.66-6.55-6.12-15.1-9.86-23-14-18.36-9.64-36.53-20.26-55.63-28.4a101,101,0,0,0-28.5-8c-10.24-1.13-20.48.51-30.39,3.07-19.66,5.08-39.48,11-58.25,18.81C-315.1-131-331.76-121.76-345.94-109A113.82,113.82,0,0,0-363.61-88.8,90.43,90.43,0,0,0-370-78a113.47,113.47,0,0,1-7.79,12.59c-10.35,15.56-17.12,34-17.18,52.82-.05,17.34,5.83,33.79,12.69,49.47s15.07,30.81,19.63,47.34,3.93,33.09-3.16,48.73c-14.77,32.62-45.23,54.79-62.42,86-17.36,31.47-22.68,70.59,2.63,99.46s65.67,34.41,101.77,34.19c38.53-.22,81.42-6.11,116.13,14.77,30.76,18.49,44.75,54.54,68.18,80.3,44.22,48.66,115.34,70.43,179.39,56.68,33.79-7.26,67.87-24.4,81.53-58,14.28-35.12,6.35-75.26,4.91-111.89-.78-19.85-.61-40,3.53-59.5,4-19,12.1-35.94,23.31-51.71,10.72-15.07,23.15-28.84,33.87-43.9a153.23,153.23,0,0,0,24.36-51.79A164.55,164.55,0,0,0,215.13,70.38Z"/><path class="cls-28" d="M158.19,509.81a162.4,162.4,0,0,0-10-49.73C132.4,419.15,101.59,384.81,92,341.41a141.52,141.52,0,0,1,1.8-68c6.28-22.75,17.65-43.56,26.91-65.15,16.1-37.55,26.36-86-6.66-117.92a58.24,58.24,0,0,0-23.31-14c-3.73-1.13-8.2-1.36-11.34-2C77,73.85,74.68,73,72.3,72.48c-27.23-5.7-56,.61-76.17,20.5-17.37,17.16-26.56,41.13-31.58,64.59a298.7,298.7,0,0,0-6,54.58C-42,234.45-46.5,256.22-58,275.58c-10,16.68-25.12,30.85-43.51,37.67-21.17,7.85-43.25,4.23-64.05-3C-205,296.56-247.69,268-291,283.32c-18.26,6.48-32.35,20.6-40.39,38.07-8.92,19.37-9.16,39.16-8.79,60.07.2,10.81.11,21.81-3.46,32.14A47.49,47.49,0,0,1-358,434.09c-13.11,11.17-31.29,16-48.06,17.94-19.47,2.22-40.18-1.31-56.78,11.38-13.94,10.65-21.47,27.57-26.13,44-5.59,19.75-10.06,42.59-1.92,62.22,6.93,16.71,21.38,29.27,37.69,36.54,42.45,18.93,87.54.92,129.2-11.05,23-6.61,47.72-12.14,71.69-7.57,20.2,3.85,37.89,14.6,54.42,26.38,17.4,12.39,34,25.85,52.59,36.45A268.08,268.08,0,0,0-83.67,675.9c41.79,11.44,87.65,13.43,129.31.37,36.09-11.31,66.45-34.33,86.47-66.45A176.06,176.06,0,0,0,158.19,509.81Z"/><g class="cls-9"><path class="cls-29" d="M-189-73.42C-193.32-55.65-216.49,56.45-143.72,137-64.48,224.76,44.45,221.88,58,288.65,70.7,351.44,68.7,490.49-29.62,497.22"/><path class="cls-30" d="M-181.24-74.25c-4.47,17.43-28.83,127.32,43.93,207.88C-58.08,221.36,49,219.63,62.55,287.2,75.16,350,72,491.16-26.31,497.91"/><path class="cls-31" d="M-173.43-75.06c-4.68,17.11-30.22,124.76,42.52,205.3,79.24,87.73,184.5,87.14,198,155.51C79.62,348.6,75.36,491.82-23,498.6"/><path class="cls-32" d="M-165.61-75.89c-4.89,16.77-31.63,122.2,41.1,202.73,79.24,87.74,182.66,88.29,196.19,157.45,12.4,62.88,7,208.2-91.35,215"/><path class="cls-33" d="M-157.8-76.71c-5.09,16.42-33,119.64,39.7,200.16,79.24,87.74,180.82,89.43,194.34,159.39C88.54,345.75,82,493.16-16.35,500"/><path class="cls-34" d="M-150-77.54c-5.29,16.09-34.42,117.09,38.29,197.6,79.24,87.73,179,90.57,192.51,161.33C93,344.33,85.34,493.83-13,500.66"/><path class="cls-35" d="M-142.17-78.36c-5.5,15.73-35.83,114.52,36.88,195C-26.06,204.4,71.85,208.38,85.38,279.94c12.08,63,3.29,214.55-95.1,221.41"/><path class="cls-36" d="M-134.36-79.19c-5.7,15.41-37.22,112,35.47,192.46C-19.65,201,76.42,206.13,89.94,278.49c12,63,2.06,216.67-96.34,223.54"/><path class="cls-37" d="M-126.55-80C-132.45-65-165.17,29.4-92.49,109.88c79.24,87.74,173.47,94,187,167.16,11.86,63,.82,218.78-97.59,225.68"/><path class="cls-38" d="M-118.73-80.84c-6.11,14.69-40,106.85,32.65,187.33,79.24,87.73,171.63,95.14,185.15,169.1,11.76,63.06-.41,220.9-98.83,227.82"/><path class="cls-39" d="M-110.92-81.67c-6.31,14.34-41.44,104.29,31.24,184.77,79.24,87.73,169.8,96.28,183.32,171,11.65,63.09-1.65,223-100.09,230"/><path class="cls-40" d="M-103.11-82.5c-6.51,14-42.84,101.73,29.84,182.2,79.23,87.74,168,97.43,181.48,173,11.54,63.12-2.89,225.13-101.34,232.09"/><path class="cls-41" d="M-95.29-83.33C-102-69.72-139.55,15.84-66.87,96.31c79.24,87.74,166.12,98.57,179.64,174.93,11.44,63.15-4.12,227.25-102.58,234.23"/><path class="cls-42" d="M-87.47-84.17c-6.92,13.25-45.67,96.62,27,177.09,79.24,87.73,164.29,99.7,177.81,176.87C128.67,333,112,499.16,13.51,506.16"/><path class="cls-43" d="M-79.66-85c-7.11,12.88-47.08,94.05,25.6,174.53,79.24,87.73,162.28,100.87,176,178.81,11.1,63.23-6.59,231.48-105.07,238.51"/><path class="cls-44" d="M-71.84-85.83c-7.31,12.51-48.5,91.48,24.18,172,79.24,87.74,160.45,102,174.13,180.76,11,63.26-7.83,233.6-106.32,240.64"/><path class="cls-45" d="M-63-88.33S-120.49-5-41.25,82.74,117.51,185.87,131,265.44C142.1,329,121.76,502.91,22,508.32"/><path class="cls-46" d="M-55.11-89.11s-59,80.72,20.26,168.46S122.08,183.62,135.6,264c11,63.62-10.52,239.61-110.33,245"/><path class="cls-47" d="M-47.27-89.89S-107.68-11.78-28.45,76s155.1,105.41,168.62,186.58C151,326.19,128.4,504.29,28.59,509.69"/><path class="cls-48" d="M-39.43-90.67S-101.28-15.17-22,72.56,131.21,179.12,144.73,261.09c10.75,63.68-13,243.88-112.82,249.29"/><path class="cls-49" d="M-31.59-91.45s-63.29,72.89,16,160.62S135.78,176.87,149.3,259.64c10.63,63.71-14.26,246-114.07,251.43"/><path class="cls-50" d="M-23.74-92.23S-88.47-22-9.23,65.78,140.35,174.62,153.86,258.19c10.53,63.74-15.51,248.16-115.32,253.57"/><path class="cls-51" d="M-15.9-93S-82.07-25.35-2.83,62.39s147.74,110,161.26,194.35c10.42,63.77-16.76,250.3-116.57,255.7"/><path class="cls-52" d="M-8.06-93.79S-75.66-28.74,3.57,59,149.48,170.12,163,255.29c10.31,63.8-18,252.43-117.82,257.84"/><path class="cls-53" d="M-.21-94.57S-69.26-32.13,10,55.6,154.05,167.87,167.56,253.84c10.21,63.83-19.25,254.57-119.06,260"/><path class="cls-54" d="M7.63-95.35S-62.86-35.53,16.38,52.21,158.61,165.62,172.13,252.39c10.09,63.86-20.5,256.71-120.31,262.12"/><path class="cls-55" d="M15.47-96.14s-71.92,57.22,7.32,145,140.39,114.55,153.9,202.12c10,63.88-21.75,258.85-121.56,264.25"/><path class="cls-56" d="M23.32-96.92S-50-42.31,29.19,45.42,167.74,161.11,181.26,249.49c9.88,63.91-23,261-122.81,266.39"/><path class="cls-57" d="M31.16-97.7S-43.64-45.7,35.59,42,172.31,158.86,185.83,248C195.6,312,161.58,511.16,61.77,516.57"/><path class="cls-58" d="M39-98.48S-37.24-49.1,42,38.64s134.88,118,148.39,208c9.67,64-25.49,265.26-125.3,270.67"/><path class="cls-59" d="M46.84-99.26S-30.84-52.49,48.4,35.25,181.44,154.36,195,245.14c9.56,64-26.74,267.4-126.55,272.8"/><path class="cls-60" d="M54.69-100s-79.12,44.16.12,131.89S186,152.11,199.52,243.69c9.45,64-28,269.54-127.8,274.94"/></g><g class="cls-9"><path class="cls-61" d="M161.35,428.91s-80-195.47-350.06-40.58c-170.9,98-340.87-111.19-442.86,168.07"/><path class="cls-62" d="M158.63,432S77,238.58-189.75,392.54c-169.39,97.9-336.81-106.26-437.55,165.21"/><path class="cls-63" d="M155.91,435.15S72.72,243.73-190.8,396.75C-358.66,494.54-523.55,295.42-623,559.1"/><path class="cls-64" d="M153.2,438.28s-84.79-189.4-345-37.31c-166.35,97.66-328.7-96.41-426.93,159.49"/><path class="cls-65" d="M150.48,441.4S64.1,254-192.88,405.18c-164.84,97.55-324.65-91.49-421.63,156.63"/><path class="cls-66" d="M147.77,444.52s-88-185.35-341.7-35.12c-163.31,97.42-320.59-86.57-416.31,153.76"/><path class="cls-67" d="M145.05,447.64s-89.57-183.32-340-34C-356.77,510.92-511.51,332-606,564.52"/><path class="cls-68" d="M142.34,450.77S50.83,268.91-196,417.83c-160.5,96.82-312.49-76.72-405.7,148"/><path class="cls-69" d="M139.62,453.89S46.48,274-197,422c-159,96.67-308.44-71.8-400.4,145.18"/><path class="cls-70" d="M136.91,457s-94.78-177.93-335-30.76c-157.52,96.51-304.37-66.87-395.08,142.33"/><path class="cls-71" d="M134.19,460.13s-96.41-176-333.33-29.66c-156,96.35-300.32-62-389.77,139.46"/><path class="cls-72" d="M131.48,463.26s-98-174-331.66-28.58c-154.54,96.2-296.27-57-384.47,136.6"/><path class="cls-73" d="M128.76,466.38s-99.67-172-330-27.48c-153,96-292.21-52.1-379.15,133.74"/><path class="cls-74" d="M126.05,469.5s-101.3-170-328.32-26.39C-353.82,539-490.43,395.93-576.12,574"/><path class="cls-75" d="M123.33,472.62s-102.92-168-326.64-25.29c-150.06,95.74-284.11-42.26-368.54,128"/><path class="cls-76" d="M120.61,475.74s-104.54-166-325-24.2c-148.56,95.6-280.06-37.33-363.24,125.16"/><path class="cls-77" d="M117.9,478.87S11.73,314.81-205.4,455.75c-147.06,95.46-276-32.4-357.92,122.3"/><path class="cls-78" d="M115.18,482S7.4,319.94-206.44,460C-352,555.29-478.38,432.48-559,579.4"/><path class="cls-79" d="M112.47,485.11s-109.4-160-319.95-20.93c-144.06,95.19-267.89-22.56-347.31,116.58"/><path class="cls-80" d="M109.75,488.23s-111-158-318.27-19.83c-142.56,95.05-263.84-17.64-342,113.71"/><path class="cls-81" d="M107,491.36s-112.62-156-316.61-18.75c-141,94.92-259.78-12.71-336.69,110.85"/><path class="cls-82" d="M104.32,494.48s-114.22-154-314.93-17.65c-139.54,94.79-255.73-7.8-331.38,108"/><path class="cls-83" d="M101.61,497.6S-14.22,345.63-211.65,481c-138,94.67-251.68-2.87-326.08,105.13"/><path class="cls-84" d="M98.89,500.72S-18.53,350.78-212.7,485.25c-136.52,94.56-247.62,2.06-320.76,102.28"/><path class="cls-85" d="M96.18,503.85s-119-147.91-309.92-14.38c-135,94.44-243.57,7-315.46,99.41"/><path class="cls-86" d="M93.46,507S-27.15,361.1-214.78,493.68C-348.27,588-454.3,505.58-524.93,590.23"/><path class="cls-87" d="M90.74,510.09S-31.45,366.27-215.82,497.9c-132,94.21-235.46,16.82-304.84,93.69"/><path class="cls-88" d="M88,513.21s-123.78-141.77-304.9-11.1c-130.45,94.11-231.4,21.75-299.53,90.83"/><path class="cls-89" d="M85.31,516.33S-40,376.62-217.91,506.33c-128.92,94-227.35,26.67-294.22,88"/><path class="cls-90" d="M82.6,519.46s-126.94-137.65-301.55-8.92c-127.4,93.92-223.3,31.59-288.92,85.11"/><path class="cls-91" d="M79.88,522.58S-48.62,387-220,514.75C-345.86,608.58-439.24,551.27-503.6,597"/><path class="cls-92" d="M77.17,525.7S-52.91,392.2-221,519c-124.32,93.74-215.19,41.44-278.3,79.38"/><path class="cls-93" d="M74.45,528.82S-57.18,397.4-222.08,523.18c-122.79,93.66-211.14,46.37-273,76.53"/><path class="cls-94" d="M71.74,532S-61.45,402.61-223.12,527.4C-344.37,621-430.21,578.68-490.8,601.06"/><path class="cls-95" d="M69,535.07s-134.74-127.24-293.19-3.46c-119.69,93.51-203,56.21-262.37,70.8"/><path class="cls-96" d="M66.31,538.19S-70,413.05-225.21,535.83c-118.14,93.44-199,61.13-257.06,67.94"/><path class="cls-97" d="M63.59,541.31s-137.82-123-289.84-1.27C-342.83,633.42-421.17,606.1-478,605.12"/><path class="cls-98" d="M60.88,544.44s-139.36-120.93-288.17-.19c-115,93.33-190.87,71-246.45,62.22"/><path class="cls-99" d="M58.16,547.56s-140.88-118.82-286.5.91c-113.44,93.27-186.81,75.9-241.14,59.36"/><path class="cls-100" d="M55.44,550.68s-142.22-116.48-284.82,2c-111.73,93.4-182.76,80.83-235.83,56.5"/></g><g class="cls-9"><path class="cls-101" d="M10.4,376.13a1.49,1.49,0,0,0,0-3,1.49,1.49,0,0,0,0,3Z"/></g></g></g></g></svg>